<?xml version="1.0" encoding="utf-8"?>
<!-- Generator: Adobe Illustrator 16.0.0, SVG Export Plug-In . SVG Version: 6.00 Build 0)  -->
<!DOCTYPE svg PUBLIC "-//W3C//DTD SVG 1.1//EN" "http://www.w3.org/Graphics/SVG/1.1/DTD/svg11.dtd">
<svg version="1.1" id="Layer_1" xmlns="http://www.w3.org/2000/svg" xmlns:xlink="http://www.w3.org/1999/xlink" x="0px" y="0px"
	 width="198px" height="198px" viewBox="0 0 198 198" enable-background="new 0 0 198 198" xml:space="preserve">
<circle fill="#016699" cx="99" cy="99" r="97.5"/>
<g>
	<path fill="#FFFFFF" d="M50.382,75.854l-12.779,2.84c-1.42,0.284-2.84-0.568-2.982-1.988l-0.852-7.1
		c-0.143-1.562,0.142-2.13,1.42-3.124l18.176-15.336c1.42-1.278,2.982-1.846,4.97-1.846h7.384c1.563,0,2.698,1.278,2.698,2.698
		v93.861c0,1.562-1.136,2.84-2.698,2.84H53.222c-1.703,0-2.84-1.278-2.84-2.84V75.854z"/>
	<path fill="#FFFFFF" d="M90.566,99c0-32.092,13.489-51.12,36.777-51.12c23.43,0,36.92,19.028,36.92,51.12
		c0,31.949-13.49,51.119-36.92,51.119C104.056,150.119,90.566,130.949,90.566,99z M145.804,99c0-21.727-7.1-34.222-18.46-34.222
		c-11.218,0-18.317,12.496-18.317,34.222c0,21.725,7.1,34.363,18.317,34.363C138.704,133.363,145.804,120.725,145.804,99z"/>
</g>
</svg>
