<?xml version="1.0" encoding="utf-8"?>
<!-- Generator: Adobe Illustrator 16.0.0, SVG Export Plug-In . SVG Version: 6.00 Build 0)  -->
<!DOCTYPE svg PUBLIC "-//W3C//DTD SVG 1.1//EN" "http://www.w3.org/Graphics/SVG/1.1/DTD/svg11.dtd">
<svg version="1.1" id="Layer_1" xmlns="http://www.w3.org/2000/svg" xmlns:xlink="http://www.w3.org/1999/xlink" x="0px" y="0px"
	 width="198px" height="198px" viewBox="0 0 198 198" enable-background="new 0 0 198 198" xml:space="preserve">
<circle fill="#016699" cx="99" cy="99" r="97.5"/>
<g>
	<path fill="#FFFFFF" d="M96.231,130.383h31.24c1.562,0,2.84,1.278,2.84,2.698v10.082c0,1.562-1.278,2.84-2.84,2.84H69.82
		c-1.562,0-2.698-1.278-2.698-2.84v-1.42c0-1.562,0.71-2.698,1.137-3.267c9.939-12.211,27.404-34.932,36.777-47.285
		c4.544-5.538,7.384-11.218,7.384-16.188c0-6.532-4.971-13.206-15.478-13.206c-6.959,0-13.064,4.97-16.33,8.52
		c-1.278,1.278-2.84,1.278-3.977,0l-7.1-6.958c-0.852-0.852-1.137-2.698-0.143-3.834c0,0,11.502-14.342,28.826-14.342
		c21.016,0,32.659,13.348,32.659,29.11c0,9.514-4.117,15.335-9.798,23.572c-6.105,8.804-17.182,22.435-24.85,32.234V130.383z"/>
</g>
</svg>
