<?xml version="1.0" encoding="utf-8"?>
<!-- Generator: Adobe Illustrator 16.0.0, SVG Export Plug-In . SVG Version: 6.00 Build 0)  -->
<!DOCTYPE svg PUBLIC "-//W3C//DTD SVG 1.1//EN" "http://www.w3.org/Graphics/SVG/1.1/DTD/svg11.dtd">
<svg version="1.1" id="Layer_1" xmlns="http://www.w3.org/2000/svg" xmlns:xlink="http://www.w3.org/1999/xlink" x="0px" y="0px"
	 width="198px" height="198px" viewBox="0 0 198 198" enable-background="new 0 0 198 198" xml:space="preserve">
<circle fill="#016699" cx="99" cy="99" r="97.5"/>
<g>
	<path fill="#FFFFFF" d="M67.408,130.809l7.525-7.241c1.277-1.136,2.556-1.136,3.691,0c3.977,3.976,9.088,7.952,18.034,7.952
		s15.478-5.68,15.478-13.206c0-9.372-6.958-15.052-20.164-15.052h-8.235c-1.562,0-2.698-1.137-2.698-2.84v-9.23
		c0-1.988,0.994-2.982,2.698-2.982h8.235c12.07,0,18.177-5.822,18.177-13.348c0-7.952-6.816-13.348-14.2-13.348
		c-7.668,0-12.354,3.976-14.768,6.958c-0.994,1.136-2.698,1.278-3.977,0.142l-7.1-6.674c-1.277-0.994-0.994-2.698,0-3.834
		c4.26-5.396,13.348-12.922,27.406-12.922c17.039,0,31.239,10.366,31.239,26.838c0,12.638-8.52,19.596-15.052,22.578v0.568
		c7.81,2.982,17.607,10.792,17.607,23.713c0,16.614-13.489,28.542-33.653,28.542c-18.176,0-27.122-9.229-30.388-12.922
		C66.414,133.365,66.556,131.803,67.408,130.809z"/>
</g>
</svg>
