<?xml version="1.0" encoding="utf-8"?>
<!-- Generator: Adobe Illustrator 16.0.0, SVG Export Plug-In . SVG Version: 6.00 Build 0)  -->
<!DOCTYPE svg PUBLIC "-//W3C//DTD SVG 1.1//EN" "http://www.w3.org/Graphics/SVG/1.1/DTD/svg11.dtd">
<svg version="1.1" id="Layer_1" xmlns="http://www.w3.org/2000/svg" xmlns:xlink="http://www.w3.org/1999/xlink" x="0px" y="0px"
	 width="198px" height="198px" viewBox="0 0 198 198" enable-background="new 0 0 198 198" xml:space="preserve">
<circle fill="#016699" cx="99" cy="99" r="97.5"/>
<g>
	<path fill="#FFFFFF" d="M58.957,123.426v-9.23c0-1.988,0.568-3.55,1.846-4.971l50.268-61.059c0.994-1.136,1.846-1.562,3.691-1.562
		h6.958c1.563,0,2.84,1.278,2.84,2.84v61.627h11.645c1.704,0,2.84,1.136,2.84,2.556v9.799c0,1.42-1.136,2.84-2.84,2.84H124.56
		l0.143,18.317c0,1.562-1.278,2.84-2.84,2.84h-12.07c-1.42,0-2.84-1.278-2.84-2.84v-18.317H61.797
		C60.234,126.266,58.957,124.846,58.957,123.426z M78.553,111.497h28.968V76.14h-0.284l-28.684,35.073V111.497z"/>
</g>
</svg>
