<?xml version="1.0" encoding="utf-8"?>
<!-- Generator: Adobe Illustrator 16.0.0, SVG Export Plug-In . SVG Version: 6.00 Build 0)  -->
<!DOCTYPE svg PUBLIC "-//W3C//DTD SVG 1.1//EN" "http://www.w3.org/Graphics/SVG/1.1/DTD/svg11.dtd">
<svg version="1.1" id="Layer_1" xmlns="http://www.w3.org/2000/svg" xmlns:xlink="http://www.w3.org/1999/xlink" x="0px" y="0px"
	 width="198px" height="198px" viewBox="0 0 198 198" enable-background="new 0 0 198 198" xml:space="preserve">
<circle fill="#016699" cx="99" cy="99" r="97.5"/>
<g>
	<path fill="#FFFFFF" d="M69.419,132.47l7.242-7.242c0.993-0.852,2.413-1.135,3.549-0.142c4.119,3.408,10.082,8.236,18.887,8.236
		c9.939,0,16.897-8.095,16.897-17.324c0-8.946-6.106-16.33-17.608-16.33H75.809c-2.981,0-4.544-2.698-4.544-5.112V51.389
		c0-1.42,1.136-2.698,2.84-2.698h46.149c1.563,0,2.84,1.278,2.84,2.698v9.94c0,1.562-1.277,2.84-2.84,2.84H87.736v19.454h12.638
		c20.731,0,33.512,13.348,33.512,32.375c0,18.317-15.193,33.512-35.357,33.512c-15.762,0-25.275-7.668-28.826-12.069
		C67.715,135.168,67.573,134.174,69.419,132.47z"/>
</g>
</svg>
