<?xml version="1.0" encoding="utf-8"?>
<!-- Generator: Adobe Illustrator 16.0.0, SVG Export Plug-In . SVG Version: 6.00 Build 0)  -->
<!DOCTYPE svg PUBLIC "-//W3C//DTD SVG 1.1//EN" "http://www.w3.org/Graphics/SVG/1.1/DTD/svg11.dtd">
<svg version="1.1" id="Layer_1" xmlns="http://www.w3.org/2000/svg" xmlns:xlink="http://www.w3.org/1999/xlink" x="0px" y="0px"
	 width="198px" height="198px" viewBox="0 0 198 198" enable-background="new 0 0 198 198" xml:space="preserve">
<circle fill="#016699" cx="99" cy="99" r="97.5"/>
<g>
	<path fill="#FFFFFF" d="M117.725,47.556c2.129-0.568,3.549,0.142,4.117,1.988l3.408,8.662c0.711,1.704,0.143,3.408-2.697,4.26
		c-6.816,2.13-27.548,11.218-32.092,27.406c2.414-1.562,9.797-4.118,16.614-4.118c14.627,0,29.82,10.792,29.82,31.665
		c0,18.461-15.053,33.512-33.086,33.512c-22.862,0-34.79-18.317-34.79-40.327C69.019,67.861,105.229,51.673,117.725,47.556z
		 M120.422,117.135c0-9.798-7.525-17.182-16.896-17.182c-9.657,0-15.337,7.526-16.899,12.78c0,10.082,5.254,21.868,17.04,21.868
		C112.896,134.601,120.422,127.5,120.422,117.135z"/>
</g>
</svg>
