<?xml version="1.0" encoding="utf-8"?>
<!-- Generator: Adobe Illustrator 16.0.0, SVG Export Plug-In . SVG Version: 6.00 Build 0)  -->
<!DOCTYPE svg PUBLIC "-//W3C//DTD SVG 1.1//EN" "http://www.w3.org/Graphics/SVG/1.1/DTD/svg11.dtd">
<svg version="1.1" id="Layer_1" xmlns="http://www.w3.org/2000/svg" xmlns:xlink="http://www.w3.org/1999/xlink" x="0px" y="0px"
	 width="198px" height="198px" viewBox="0 0 198 198" enable-background="new 0 0 198 198" xml:space="preserve">
<circle fill="#016699" cx="99" cy="99" r="97.5"/>
<g>
	<path fill="#FFFFFF" d="M106.952,67.292H68.471c-1.421,0-2.698-1.278-2.698-2.84V54.229c0-1.42,1.277-2.698,2.698-2.698h60.917
		c1.42,0,2.84,1.278,2.84,2.698c0,0.568,0,0.994-0.567,2.13l-43.026,90.595c-1.136,2.414-2.556,3.977-4.97,3.977H72.73
		c-1.704,0-3.55-0.426-3.55-2.84c0-1.137,0.142-1.847,0.71-2.982l37.062-77.531V67.292z"/>
</g>
</svg>
