<?xml version="1.0" encoding="utf-8"?>
<!-- Generator: Adobe Illustrator 16.0.0, SVG Export Plug-In . SVG Version: 6.00 Build 0)  -->
<!DOCTYPE svg PUBLIC "-//W3C//DTD SVG 1.1//EN" "http://www.w3.org/Graphics/SVG/1.1/DTD/svg11.dtd">
<svg version="1.1" id="Layer_1" xmlns="http://www.w3.org/2000/svg" xmlns:xlink="http://www.w3.org/1999/xlink" x="0px" y="0px"
	 width="198px" height="198px" viewBox="0 0 198 198" enable-background="new 0 0 198 198" xml:space="preserve">
<circle fill="#016699" cx="99" cy="99" r="97.5"/>
<g>
	<path fill="#FFFFFF" d="M82.031,99.952v-0.568c-6.958-2.982-15.052-11.076-15.052-22.436c0-16.33,14.058-26.838,31.666-26.838
		c18.318,0,32.375,10.508,32.375,26.838c0,11.076-8.378,19.169-15.052,22.293v0.71c8.804,3.692,17.75,11.786,17.75,24.424
		c0,15.903-13.49,27.974-35.074,27.974c-20.874,0-34.364-12.07-34.364-27.974C64.281,111.596,73.795,103.645,82.031,99.952z
		 M99.071,137.439c9.087,0,15.194-5.396,15.194-13.489c0-6.532-5.396-13.206-15.194-15.478c-9.798,2.271-15.336,8.945-15.336,15.478
		C83.735,132.044,89.841,137.439,99.071,137.439z M112.276,77.659c0-6.958-5.396-12.496-13.631-12.496
		c-7.668,0-12.922,5.538-12.922,12.496c0,6.532,4.118,11.502,13.348,13.774C108.017,89.302,112.276,83.906,112.276,77.659z"/>
</g>
</svg>
