<?xml version="1.0" encoding="utf-8"?>
<!-- Generator: Adobe Illustrator 16.0.0, SVG Export Plug-In . SVG Version: 6.00 Build 0)  -->
<!DOCTYPE svg PUBLIC "-//W3C//DTD SVG 1.1//EN" "http://www.w3.org/Graphics/SVG/1.1/DTD/svg11.dtd">
<svg version="1.1" id="Layer_1" xmlns="http://www.w3.org/2000/svg" xmlns:xlink="http://www.w3.org/1999/xlink" x="0px" y="0px"
	 width="198px" height="198px" viewBox="0 0 198 198" enable-background="new 0 0 198 198" xml:space="preserve">
<circle fill="#016699" cx="99" cy="99" r="97.5"/>
<g>
	<path fill="#FFFFFF" d="M79.404,139.996c6.815-2.129,27.689-11.217,32.092-27.264c-2.414,1.42-9.798,4.119-16.614,4.119
		c-14.625,0-29.819-10.935-29.819-31.808c0-18.46,15.052-33.512,33.085-33.512c22.862,0,34.79,18.46,34.79,40.328
		c0,42.741-36.21,59.071-48.705,63.047c-2.13,0.71-3.55-0.142-4.118-1.988l-3.408-8.661
		C75.997,142.553,76.564,140.99,79.404,139.996z M115.33,89.729c0-9.94-5.254-21.726-17.04-21.726
		c-9.23,0-16.756,8.094-16.756,17.324c0,9.372,7.525,17.183,16.898,17.183C108.088,102.51,113.768,94.983,115.33,89.729z"/>
</g>
</svg>
