<?xml version="1.0" encoding="utf-8"?>
<!-- Generator: Adobe Illustrator 16.0.0, SVG Export Plug-In . SVG Version: 6.00 Build 0)  -->
<!DOCTYPE svg PUBLIC "-//W3C//DTD SVG 1.1//EN" "http://www.w3.org/Graphics/SVG/1.1/DTD/svg11.dtd">
<svg version="1.1" id="Layer_1" xmlns="http://www.w3.org/2000/svg" xmlns:xlink="http://www.w3.org/1999/xlink" x="0px" y="0px"
	 width="400px" height="100px" viewBox="0 0 400 100" enable-background="new 0 0 400 100" xml:space="preserve">
<g id="Layer_1_1_">
	
		<image overflow="visible" enable-background="new    " width="144" height="164" xlink:href="../used/mongo.png"  transform="matrix(0.5644 0 0 0.5644 1.8916 1.7188)">
	</image>
</g>
<g id="Layer_2">
	<path fill="#046799" d="M43.419,97.757C-2.611,73.72-1.328,28.682,4.273,16.548c0,0,6.761-14.644,39.489-13.594
		c0,0,32.263,0.583,39.147,13.594c5.602,12.135,6.884,57.172-39.147,81.209"/>
	<path fill="#FFFFFF" d="M43.447,90.061C4.886,69.925,5.961,32.195,10.652,22.028c0,0,5.664-12.268,33.082-11.387
		c0,0,27.028,0.49,32.795,11.387c4.692,10.167,5.768,47.897-32.795,68.033"/>
	<path fill="#046799" d="M43.59,13.98c0,0,3.498,6.65,6.474,10.676c2.975,4.025,18.727,35.354-6.302,50.406
		c0,0-22.227-12.427-14.352-39.905C35.362,21.331,41.319,21.157,43.59,13.98z"/>
	<path fill="#FFFFFF" d="M43.762,20.806v49.881c0,0,12.778-4.375,11.728-26.165C53.039,26.932,43.762,20.806,43.762,20.806z"/>
</g>
<g id="Layer_2_1_">
	<circle fill="#046799" cx="147.782" cy="50.59" r="47.691"/>
	<g>
		<path fill="#FFFFFF" d="M107.567,52.031c0.102,1.284,1.366,1.896,2.813,1.896c1.06,0,1.916-0.144,2.751-0.408l0.408,2.1
			c-1.019,0.407-2.263,0.61-3.607,0.61c-3.384,0-5.32-1.957-5.32-5.075c0-2.526,1.57-5.319,5.035-5.319
			c3.221,0,4.444,2.507,4.444,4.973c0,0.53-0.062,0.999-0.102,1.224H107.567z M111.216,49.911c0-0.753-0.327-2.018-1.753-2.018
			c-1.304,0-1.834,1.182-1.916,2.018H111.216z"/>
		<path fill="#FFFFFF" d="M118.512,46.058l0.979,1.651c0.286,0.51,0.55,1.019,0.815,1.488h0.041c0.265-0.531,0.51-1.04,0.774-1.529
			l0.876-1.61h3.363l-3.281,4.749l3.322,5.218h-3.506l-0.999-1.794c-0.285-0.488-0.53-0.998-0.774-1.507h-0.061
			c-0.245,0.528-0.51,1.019-0.754,1.507l-0.938,1.794h-3.403l3.382-5.075l-3.301-4.892H118.512z"/>
		<path fill="#FFFFFF" d="M127.175,49.401c0-1.304-0.04-2.425-0.081-3.342h2.69l0.143,1.386h0.042
			c0.733-1.061,1.874-1.611,3.321-1.611c2.181,0,4.138,1.896,4.138,5.076c0,3.628-2.303,5.339-4.525,5.339
			c-1.202,0-2.14-0.489-2.588-1.142h-0.041v4.953h-3.099V49.401L127.175,49.401z M130.274,51.745c0,0.245,0.02,0.469,0.061,0.652
			c0.204,0.836,0.917,1.468,1.814,1.468c1.345,0,2.14-1.121,2.14-2.813c0-1.592-0.713-2.793-2.099-2.793
			c-0.876,0-1.652,0.651-1.855,1.57c-0.041,0.163-0.061,0.366-0.061,0.55V51.745z"/>
		<path fill="#FFFFFF" d="M139.813,49.339c0-1.467-0.041-2.425-0.081-3.281h2.67l0.102,1.835h0.082
			c0.509-1.448,1.732-2.059,2.69-2.059c0.286,0,0.428,0,0.653,0.041v2.915c-0.225-0.04-0.489-0.081-0.836-0.081
			c-1.142,0-1.916,0.611-2.12,1.57c-0.041,0.203-0.061,0.448-0.061,0.693v5.054h-3.098V49.339z"/>
		<path fill="#FFFFFF" d="M150.227,52.031c0.103,1.284,1.367,1.896,2.815,1.896c1.061,0,1.916-0.144,2.751-0.408l0.408,2.1
			c-1.019,0.407-2.262,0.61-3.608,0.61c-3.382,0-5.319-1.957-5.319-5.075c0-2.528,1.57-5.32,5.034-5.32
			c3.219,0,4.443,2.507,4.443,4.973c0,0.53-0.063,0.999-0.101,1.224L150.227,52.031L150.227,52.031z M153.877,49.911
			c0-0.753-0.326-2.018-1.754-2.018c-1.304,0-1.833,1.182-1.913,2.018H153.877z"/>
		<path fill="#FFFFFF" d="M159.033,53.313c0.57,0.347,1.753,0.754,2.67,0.754c0.938,0,1.326-0.325,1.326-0.835
			c0-0.509-0.306-0.753-1.468-1.143c-2.058-0.693-2.853-1.813-2.833-2.997c0-1.855,1.59-3.261,4.057-3.261
			c1.162,0,2.202,0.265,2.813,0.57l-0.552,2.142c-0.449-0.245-1.304-0.571-2.161-0.571c-0.754,0-1.182,0.306-1.182,0.815
			c0,0.469,0.387,0.713,1.61,1.142c1.896,0.653,2.691,1.611,2.711,3.078c0,1.854-1.467,3.219-4.322,3.219
			c-1.304,0-2.466-0.286-3.22-0.694L159.033,53.313z"/>
		<path fill="#FFFFFF" d="M168.329,53.313c0.571,0.347,1.753,0.754,2.67,0.754c0.937,0,1.324-0.325,1.324-0.835
			c0-0.509-0.306-0.753-1.467-1.143c-2.058-0.693-2.854-1.813-2.833-2.997c0-1.855,1.59-3.261,4.057-3.261
			c1.161,0,2.201,0.265,2.814,0.57l-0.551,2.14c-0.449-0.244-1.305-0.57-2.161-0.57c-0.754,0-1.182,0.306-1.182,0.815
			c0,0.468,0.387,0.713,1.609,1.141c1.896,0.652,2.691,1.611,2.711,3.079c0,1.854-1.467,3.218-4.321,3.218
			c-1.305,0-2.467-0.285-3.22-0.693L168.329,53.313z"/>
		<path fill="#FFCD05" d="M175.585,57.86c0.815-0.063,1.446-0.244,1.834-0.652c0.448-0.469,0.611-1.264,0.611-3.242v-7.908h3.118
			V54.7c0,2.18-0.49,3.506-1.406,4.362c-0.917,0.855-2.365,1.223-3.853,1.223L175.585,57.86z M181.231,43.286
			c0,0.856-0.632,1.549-1.673,1.549c-0.977,0-1.61-0.694-1.61-1.549c0-0.896,0.633-1.569,1.652-1.569
			C180.599,41.717,181.21,42.39,181.231,43.286z"/>
		<path fill="#FFCD05" d="M184.002,53.313c0.571,0.347,1.753,0.754,2.669,0.754c0.938,0,1.325-0.325,1.325-0.835
			c0-0.509-0.305-0.753-1.467-1.143c-2.059-0.693-2.853-1.813-2.833-2.997c0-1.855,1.589-3.261,4.056-3.261
			c1.162,0,2.202,0.265,2.813,0.57l-0.551,2.14c-0.448-0.244-1.304-0.57-2.16-0.57c-0.754,0-1.183,0.306-1.183,0.815
			c0,0.468,0.388,0.713,1.611,1.141c1.896,0.652,2.69,1.611,2.71,3.079c0,1.854-1.468,3.218-4.321,3.218
			c-1.304,0-2.466-0.285-3.219-0.693L184.002,53.313z"/>
	</g>
</g>
<polygon fill="#046799" points="253.187,2.275 208.803,19.072 215.568,76.227 253.187,97.925 289.755,76.227 297.688,19.538 "/>
<polygon fill="#085973" points="253.187,2.275 297.688,19.538 289.755,76.227 253.187,97.925 "/>
<path fill="#FFFFFF" d="M282.99,75.062h-11.198l-6.766-14.464l-23.096-0.234l-6.532,14.698h-11.665l29.452-63.223L282.99,75.062z
	 M253.363,34.235l-8.166,15.915h15.864L253.363,34.235z"/>
<path fill="#046799" d="M336.943,33.187h6.113v42.997c0,0-2.74,11.803-14.121,8.43c-11.382-3.371-17.916-9.695-17.916-11.803V30.867
	c0,0,0.844-5.059,4.217-6.745l32.247-19.427c0,0,7.165-4.042,14.542,0l33.724,20.48c0,0,2.951,0.422,2.529,6.955l0.041,37.939
	c0,0,1.224,3.583-3.203,6.534l-28.875,17.201c0,0-13.272,8.592-23.186,0l-4.004-2.658l5.692-3.372c0,0,4.621,5.269,10.004,4.636
	c5.381-0.631,34.467-18.125,34.467-18.125s4.847-1.897,4.426-9.063c-0.423-7.166,0-31.405,0-31.405s-0.634-3.372-4.637-5.479
	L358.23,10.212c0,0-1.475-3.162-6.323-0.21l-31.192,17.915c0,0-3.584,0.844-3.372,8.431v35.619c0,0,19.181,13.488,19.391,3.373
	L336.943,33.187z"/>
<path fill="#046799" d="M375.725,43.092h6.955c0,0-1.476-11.591-16.863-11.591c-15.384,0-17.281,9.062-16.438,15.596
	c0.632,2.951,10.961,5.903,21.709,6.956c11.382,2.529,6.955,12.014-3.793,11.592c-14.544,0-14.122-7.588-14.122-7.588l-5.481,0.21
	c0,0-2.738,11.594,19.18,12.437c22.342-1.687,20.022-18.877,8.432-21.453c-11.594-2.577-26.767-1.732-18.757-10.585
	C365.186,34.24,373.827,38.456,375.725,43.092z"/>
</svg>
