<?xml version="1.0" encoding="utf-8"?>
<!-- Generator: Adobe Illustrator 16.0.0, SVG Export Plug-In . SVG Version: 6.00 Build 0)  -->
<!DOCTYPE svg PUBLIC "-//W3C//DTD SVG 1.1//EN" "http://www.w3.org/Graphics/SVG/1.1/DTD/svg11.dtd">
<svg version="1.1" id="Layer_1" xmlns="http://www.w3.org/2000/svg" xmlns:xlink="http://www.w3.org/1999/xlink" x="0px" y="0px"
	 width="570px" height="180px" viewBox="0 0 570 180" enable-background="new 0 0 570 180" xml:space="preserve">
<g>
	<path fill="#046799" d="M167.484,2.394H13.699c-5.931,0-10.719,4.799-10.719,10.719v153.762c0,5.943,4.8,10.731,10.719,10.731
		h153.774c5.931,0,10.72-4.799,10.72-10.731V13.113C178.204,7.193,173.404,2.394,167.484,2.394z M53.982,110.125h-9.074V93.302
		H29.915v16.823h-9.13V69.887h9.13V85.36h14.994V69.887h9.074V110.125z M89.832,77.521H78.849v32.604h-9.142V77.521H58.896v-7.633
		h30.936V77.521z M129.075,110.125l-0.594-15.394c-0.183-4.845-0.354-10.696-0.354-16.536h-0.172
		c-1.257,5.131-2.937,10.868-4.491,15.576l-4.903,15.714h-7.096l-4.309-15.588c-1.314-4.72-2.686-10.457-3.634-15.702h-0.125
		c-0.24,5.428-0.412,11.646-0.72,16.65l-0.721,15.28h-8.422l2.571-40.238h12.137l3.943,13.439c1.245,4.651,2.514,9.668,3.405,14.387
		h0.183c1.143-4.662,2.514-9.977,3.817-14.456l4.308-13.37h11.885l2.206,40.238H129.075z M170.125,110.125h-25.142V69.887h9.142
		v32.615h16V110.125z"/>
</g>
<g>
	<path fill="#046799" d="M361.441,2.394H209.34c-6.148,0-11.132,4.984-11.132,11.133v152.101c0,6.135,4.984,11.146,11.132,11.146
		h152.087c6.148,0,11.133-5.011,11.133-11.146V13.526C372.561,7.377,367.59,2.394,361.441,2.394z M249.959,103.462
		c3.676,0,6.541-0.615,8.869-1.53l1.845,11.42c-2.747,1.229-7.954,2.25-13.88,2.25c-16.116,0-26.425-9.786-26.425-25.51
		c0-14.572,9.995-26.516,28.57-26.516c4.082,0,8.582,0.719,11.839,1.936l-2.446,11.525c-1.832-0.824-4.592-1.517-8.673-1.517
		c-8.163,0-13.474,5.808-13.37,13.97C236.289,98.648,242.411,103.462,249.959,103.462z M282.546,115.589
		c-6.541,0-12.35-1.426-16.13-3.479l2.76-11.12c2.852,1.74,8.778,3.781,13.37,3.781c4.683,0,6.619-1.636,6.619-4.187
		s-1.518-3.768-7.353-5.717c-10.308-3.467-14.285-9.066-14.167-14.992c0-9.288,7.954-16.326,20.302-16.326
		c5.809,0,11.015,1.334,14.063,2.865l-2.747,10.714c-2.237-1.243-6.528-2.865-10.818-2.865c-3.768,0-5.899,1.518-5.899,4.082
		c0,2.355,1.923,3.571,8.045,5.717c9.497,3.27,13.461,8.058,13.565,15.41C304.156,108.748,296.805,115.589,282.546,115.589z
		 M326.84,115.589c-6.541,0-12.35-1.426-16.13-3.479l2.76-11.12c2.865,1.74,8.778,3.781,13.37,3.781
		c4.683,0,6.619-1.636,6.619-4.187s-1.531-3.768-7.352-5.717c-10.308-3.467-14.285-9.066-14.167-14.992
		c0-9.288,7.94-16.326,20.302-16.326c5.809,0,11.015,1.334,14.063,2.865l-2.747,10.714c-2.237-1.243-6.528-2.865-10.819-2.865
		c-3.768,0-5.899,1.518-5.899,4.082c0,2.355,1.922,3.571,8.045,5.717c9.498,3.27,13.46,8.058,13.566,15.41
		C348.464,108.748,341.112,115.589,326.84,115.589z"/>
</g>
<g>
	<path fill="#046799" d="M555.884,2.394H403.713c-6.145,0-11.137,4.984-11.137,11.137v152.178c0,6.138,4.992,11.137,11.137,11.137
		h152.171c6.145,0,11.136-4.992,11.136-11.137V13.523C567.015,7.377,562.029,2.394,555.884,2.394z M471.787,100.719
		c0,4.848-0.46,8.98-1.38,12.389c-0.919,3.409-2.314,6.145-4.169,8.287c-1.862,2.112-4.192,3.672-6.967,4.645
		c-2.782,0.988-6.018,1.47-9.705,1.47c-3.242,0-6.168-0.513-8.8-1.531c-2.631-1.018-4.855-2.473-6.696-4.373
		c-1.847-1.908-3.265-4.208-4.26-6.907c-1.003-2.707-1.5-5.73-1.5-9.041v-2.171h10.451c0,9.727,3.604,14.598,10.813,14.598
		c1.847,0,3.483-0.211,4.931-0.656c1.44-0.452,2.662-1.274,3.665-2.503c1.003-1.222,1.757-2.911,2.277-5.097
		c0.521-2.187,0.784-5.037,0.784-8.558V46.844h10.572v53.875H471.787z M530.111,116.517c-1.078,2.202-2.617,4.125-4.584,5.768
		c-1.982,1.644-4.403,2.918-7.247,3.853c-2.834,0.913-6.032,1.373-9.553,1.373c-15.608,0-23.85-6.161-24.687-18.497h10.27
		c0.045,6.967,4.818,10.459,14.304,10.459c2.104,0,3.989-0.227,5.61-0.701c1.622-0.46,2.979-1.102,4.05-1.916
		c1.085-0.814,1.899-1.787,2.465-2.895c0.55-1.101,0.844-2.3,0.844-3.613c0-1.379-0.219-2.472-0.633-3.301
		c-0.422-0.837-1.252-1.584-2.474-2.232c-1.214-0.641-2.911-1.274-5.067-1.884c-2.164-0.634-4.991-1.411-8.475-2.323
		c-3.393-0.845-6.334-1.689-8.792-2.534c-2.474-0.829-4.495-1.847-6.07-3.046c-1.583-1.207-2.76-2.685-3.521-4.441
		c-0.762-1.765-1.139-3.989-1.139-6.673c0-2.36,0.498-4.554,1.5-6.575c1.003-2.021,2.427-3.77,4.298-5.255
		c1.855-1.486,4.109-2.639,6.749-3.484c2.662-0.844,5.603-1.259,8.837-1.259c15.095,0,22.771,5.361,23.005,16.099h-10.096
		c-0.362-5.361-4.404-8.053-12.132-8.053c-1.72,0-3.303,0.173-4.773,0.513c-1.47,0.339-2.729,0.829-3.815,1.47
		c-1.085,0.641-1.916,1.433-2.526,2.375c-0.596,0.942-0.898,2.036-0.898,3.272c0,1.124,0.144,2.044,0.423,2.76
		c0.278,0.724,0.95,1.402,2.013,2.021c1.062,0.618,2.639,1.229,4.712,1.832c2.081,0.604,4.924,1.343,8.536,2.225
		c3.483,0.837,6.507,1.712,9.079,2.609c2.556,0.905,4.682,1.999,6.394,3.28c1.704,1.275,2.956,2.835,3.785,4.683
		c0.815,1.84,1.229,4.147,1.229,6.907C531.733,111.917,531.182,114.314,530.111,116.517z"/>
</g>
</svg>
