<?xml version="1.0" encoding="utf-8"?>
<!-- Generator: Adobe Illustrator 16.0.0, SVG Export Plug-In . SVG Version: 6.00 Build 0)  -->
<!DOCTYPE svg PUBLIC "-//W3C//DTD SVG 1.1//EN" "http://www.w3.org/Graphics/SVG/1.1/DTD/svg11.dtd">
<svg version="1.1" id="Layer_1" xmlns="http://www.w3.org/2000/svg" xmlns:xlink="http://www.w3.org/1999/xlink" x="0px" y="0px"
	 width="400px" height="126px" viewBox="85 27 400 126" enable-background="new 85 27 400 126" xml:space="preserve">
<g>
	<path fill="#046799" d="M201.946,28.085H93.26c-4.192,0-7.576,3.392-7.576,7.575v108.67c0,4.201,3.392,7.584,7.576,7.584h108.679
		c4.191,0,7.576-3.392,7.576-7.584V35.66C209.522,31.477,206.13,28.085,201.946,28.085z M121.73,104.224h-6.413V92.333h-10.597
		v11.891h-6.452V75.785h6.452V86.72h10.597V75.785h6.413L121.73,104.224L121.73,104.224z M147.066,81.18h-7.762v23.043h-6.46V81.18
		h-7.641v-5.394h21.863V81.18z M174.802,104.224l-0.42-10.881c-0.13-3.423-0.251-7.559-0.251-11.686h-0.121
		c-0.888,3.627-2.076,7.681-3.174,11.009l-3.465,11.104h-5.015l-3.045-11.017c-0.929-3.336-1.897-7.39-2.568-11.097h-0.089
		c-0.169,3.836-0.291,8.231-0.509,11.767l-0.51,10.8h-5.952l1.817-28.438h8.577l2.787,9.499c0.879,3.287,1.777,6.833,2.406,10.167
		h0.129c0.808-3.294,1.776-7.05,2.698-10.216l3.044-9.449h8.4l1.559,28.438H174.802z M203.813,104.224h-17.769V75.785h6.461v23.05
		h11.308V104.224z"/>
</g>
<g>
	<path fill="#046799" d="M339.023,28.085H231.528c-4.345,0-7.868,3.522-7.868,7.868V143.45c0,4.335,3.522,7.876,7.868,7.876h107.485
		c4.346,0,7.869-3.541,7.869-7.876V35.952C346.883,31.607,343.369,28.085,339.023,28.085z M260.235,99.515
		c2.598,0,4.623-0.436,6.269-1.082l1.304,8.071c-1.942,0.869-5.622,1.589-9.81,1.589c-11.39,0-18.675-6.916-18.675-18.028
		c0-10.298,7.063-18.739,20.191-18.739c2.885,0,6.065,0.508,8.366,1.368l-1.728,8.145c-1.295-0.583-3.246-1.072-6.129-1.072
		c-5.769,0-9.522,4.105-9.449,9.873C250.574,96.112,254.901,99.515,260.235,99.515z M283.265,108.085
		c-4.623,0-8.728-1.009-11.399-2.459l1.951-7.858c2.016,1.229,6.204,2.672,9.449,2.672c3.309,0,4.678-1.155,4.678-2.959
		s-1.073-2.663-5.197-4.04c-7.285-2.45-10.095-6.408-10.012-10.597c0-6.564,5.622-11.538,14.349-11.538
		c4.104,0,7.784,0.943,9.938,2.025l-1.939,7.572c-1.581-0.878-4.615-2.024-7.646-2.024c-2.663,0-4.169,1.072-4.169,2.884
		c0,1.665,1.36,2.524,5.685,4.041c6.713,2.311,9.515,5.695,9.589,10.892C298.539,103.25,293.343,108.085,283.265,108.085z
		 M314.57,108.085c-4.623,0-8.728-1.009-11.399-2.459l1.949-7.858c2.025,1.229,6.205,2.672,9.45,2.672
		c3.31,0,4.679-1.155,4.679-2.959s-1.083-2.663-5.196-4.04c-7.286-2.45-10.096-6.408-10.013-10.597
		c0-6.564,5.61-11.538,14.348-11.538c4.105,0,7.784,0.943,9.939,2.025l-1.941,7.572c-1.581-0.878-4.614-2.024-7.646-2.024
		c-2.665,0-4.17,1.072-4.17,2.884c0,1.665,1.357,2.524,5.686,4.041c6.712,2.311,9.513,5.695,9.588,10.892
		C329.852,103.25,324.656,108.085,314.57,108.085z"/>
</g>
<g>
	<path fill="#046799" d="M476.444,28.085H368.899c-4.343,0-7.871,3.522-7.871,7.871v107.55c0,4.339,3.528,7.871,7.871,7.871h107.545
		c4.344,0,7.87-3.528,7.87-7.871V35.951C484.312,31.607,480.788,28.085,476.444,28.085z M417.011,97.574
		c0,3.427-0.326,6.349-0.977,8.757c-0.649,2.41-1.634,4.344-2.946,5.857c-1.315,1.492-2.962,2.595-4.924,3.282
		c-1.966,0.697-4.252,1.039-6.858,1.039c-2.291,0-4.359-0.362-6.22-1.083c-1.859-0.719-3.431-1.747-4.731-3.091
		c-1.308-1.348-2.309-2.973-3.012-4.879c-0.709-1.915-1.06-4.051-1.06-6.391v-1.535h7.386c0,6.875,2.547,10.317,7.643,10.317
		c1.306,0,2.461-0.149,3.484-0.464c1.018-0.319,1.881-0.9,2.591-1.77c0.709-0.863,1.241-2.056,1.609-3.602
		c0.367-1.545,0.553-3.56,0.553-6.047V59.5h7.472v38.075H417.011z M458.229,108.741c-0.762,1.556-1.85,2.916-3.239,4.076
		c-1.4,1.162-3.112,2.062-5.121,2.723c-2.004,0.644-4.264,0.971-6.752,0.971c-11.03,0-16.855-4.354-17.447-13.072h7.257
		c0.033,4.923,3.406,7.392,10.111,7.392c1.485,0,2.818-0.16,3.964-0.495c1.146-0.325,2.105-0.779,2.863-1.354
		c0.767-0.576,1.342-1.263,1.741-2.045c0.389-0.78,0.597-1.627,0.597-2.557c0-0.973-0.154-1.745-0.447-2.332
		c-0.299-0.592-0.885-1.119-1.749-1.577c-0.857-0.452-2.058-0.899-3.581-1.331c-1.528-0.447-3.526-0.998-5.989-1.644
		c-2.397-0.594-4.477-1.191-6.215-1.789c-1.746-0.587-3.177-1.306-4.288-2.153c-1.119-0.853-1.951-1.897-2.489-3.138
		c-0.538-1.248-0.805-2.819-0.805-4.716c0-1.668,0.353-3.219,1.06-4.647c0.709-1.429,1.716-2.665,3.037-3.714
		c1.313-1.05,2.905-1.865,4.771-2.462c1.88-0.598,3.959-0.89,6.244-0.89c10.669,0,16.095,3.789,16.259,11.377h-7.135
		c-0.256-3.789-3.112-5.691-8.573-5.691c-1.217,0-2.335,0.123-3.375,0.362c-1.038,0.24-1.928,0.585-2.695,1.039
		c-0.767,0.453-1.354,1.013-1.785,1.679c-0.422,0.666-0.636,1.438-0.636,2.312c0,0.794,0.103,1.445,0.299,1.951
		c0.196,0.512,0.671,0.991,1.423,1.429c0.752,0.437,1.864,0.868,3.33,1.295c1.471,0.427,3.48,0.949,6.034,1.572
		c2.46,0.592,4.598,1.209,6.415,1.845c1.807,0.64,3.311,1.413,4.521,2.316c1.203,0.902,2.088,2.006,2.673,3.312
		c0.578,1.3,0.87,2.93,0.87,4.881C459.378,105.489,458.985,107.185,458.229,108.741z"/>
</g>
</svg>
