<?xml version="1.0" encoding="utf-8"?>
<!-- Generator: Adobe Illustrator 16.0.0, SVG Export Plug-In . SVG Version: 6.00 Build 0)  -->
<!DOCTYPE svg PUBLIC "-//W3C//DTD SVG 1.1//EN" "http://www.w3.org/Graphics/SVG/1.1/DTD/svg11.dtd">
<svg version="1.1" id="Capa_1" xmlns="http://www.w3.org/2000/svg" xmlns:xlink="http://www.w3.org/1999/xlink" x="0px" y="0px"
	 width="130px" height="130px" viewBox="191 191 130 130" enable-background="new 191 191 130 130" xml:space="preserve">
<g>
	<path fill="#006699" d="M290.19,259.891v-57.926h-86.457v108.07h39.77c2.853,0,5.188,2.334,5.188,5.188s-2.335,5.188-5.188,5.188
		h-44.958c-2.853,0-5.187-2.334-5.187-5.188V196.777c0-2.853,2.334-5.188,5.187-5.188h96.832c2.853,0,5.188,2.334,5.188,5.188
		v63.113c0,2.853-2.335,5.188-5.188,5.188C292.524,265.078,290.19,262.743,290.19,259.891z M316.905,272.513
		c-2.161-1.901-5.446-1.729-7.35,0.433l-28.443,31.644l-14.265-13.747c-2.076-1.988-5.36-1.901-7.35,0.173
		c-1.988,2.076-1.902,5.36,0.173,7.35l18.156,17.463c0.95,0.951,2.248,1.47,3.631,1.47c0.086,0,0.086,0,0.173,0
		c1.383-0.086,2.766-0.691,3.632-1.729l31.988-35.62C319.239,277.7,319.066,274.416,316.905,272.513z M271.17,221.85h-46.687
		c-2.854,0-5.187,2.334-5.187,5.188c0,2.854,2.333,5.187,5.187,5.187h46.687c2.853,0,5.188-2.333,5.188-5.187
		C276.357,224.184,274.022,221.85,271.17,221.85z M276.357,255.568c0-2.853-2.335-5.188-5.188-5.188h-46.687
		c-2.854,0-5.187,2.334-5.187,5.188c0,2.852,2.333,5.187,5.187,5.187h46.687C274.022,260.755,276.357,258.42,276.357,255.568z
		 M224.483,278.046c-2.854,0-5.187,2.335-5.187,5.188c0,2.853,2.333,5.188,5.187,5.188h13.833c2.854,0,5.187-2.335,5.187-5.188
		c0-2.854-2.333-5.188-5.187-5.188H224.483z"/>
</g>
</svg>
