<?xml version="1.0" encoding="utf-8"?>
<!-- Generator: Adobe Illustrator 16.0.0, SVG Export Plug-In . SVG Version: 6.00 Build 0)  -->
<!DOCTYPE svg PUBLIC "-//W3C//DTD SVG 1.1//EN" "http://www.w3.org/Graphics/SVG/1.1/DTD/svg11.dtd">
<svg version="1.1" id="Capa_1" xmlns="http://www.w3.org/2000/svg" xmlns:xlink="http://www.w3.org/1999/xlink" x="0px" y="0px"
	 width="130px" height="130px" viewBox="191 191 130 130" enable-background="new 191 191 130 130" xml:space="preserve">
<g>
	<path fill="#006699" d="M299.968,191.5h-87.938c-11.32,0-20.529,9.21-20.529,20.53v87.939c0,11.32,9.209,20.529,20.529,20.529
		h87.938c11.32,0,20.53-9.209,20.53-20.529V212.03C320.498,200.71,311.288,191.5,299.968,191.5z M272.196,220.11
		c0-10.858,8.834-19.692,19.691-19.692c10.858,0,19.692,8.833,19.692,19.692c0,7.147-10.942,24.576-19.692,36.625
		C283.14,244.686,272.196,227.257,272.196,220.11z M200.418,212.03c0-6.402,5.208-11.612,11.611-11.612h59.134
		c-4.88,5.134-7.885,12.066-7.885,19.692c0,4.433,2.311,10.483,5.532,16.771l-15.96,15.96c-0.002,0.001-0.003,0.002-0.005,0.004
		c-0.002,0.002-0.003,0.003-0.004,0.005l-51.543,51.542c-0.564-1.364-0.88-2.858-0.88-4.424V212.03L200.418,212.03z
		 M212.029,311.581c-1.567,0-3.06-0.316-4.425-0.881l48.395-48.394l48.394,48.394c-1.365,0.564-2.858,0.881-4.425,0.881H212.029z
		 M311.581,299.969c0,1.566-0.316,3.06-0.881,4.425l-48.394-48.395l11.031-11.031c6.355,10.574,13.625,20.13,15.02,21.94
		c0.844,1.096,2.148,1.737,3.531,1.737c1.384,0,2.688-0.642,3.532-1.737c1.478-1.919,9.563-12.548,16.16-23.865V299.969
		L311.581,299.969z"/>
	<path fill="#006699" d="M229.529,249.913c11.896,0,21.574-9.678,21.574-21.574c0-2.462-1.996-4.459-4.459-4.459h-17.115
		c-2.463,0-4.459,1.997-4.459,4.459c0,2.463,1.996,4.459,4.459,4.459h11.845c-1.807,4.785-6.435,8.197-11.845,8.197
		c-6.978,0-12.655-5.677-12.655-12.656c0-6.978,5.677-12.655,12.655-12.655c3.379,0,6.558,1.316,8.949,3.707
		c1.742,1.741,4.564,1.741,6.306-0.001c1.741-1.741,1.74-4.564-0.001-6.305c-4.075-4.074-9.493-6.317-15.254-6.317
		c-11.896,0-21.573,9.678-21.573,21.573C207.956,240.235,217.633,249.913,229.529,249.913z"/>
</g>
</svg>
