<?xml version="1.0" encoding="utf-8"?>
<!-- Generator: Adobe Illustrator 16.0.0, SVG Export Plug-In . SVG Version: 6.00 Build 0)  -->
<!DOCTYPE svg PUBLIC "-//W3C//DTD SVG 1.1//EN" "http://www.w3.org/Graphics/SVG/1.1/DTD/svg11.dtd">
<svg version="1.1" id="Capa_1" xmlns="http://www.w3.org/2000/svg" xmlns:xlink="http://www.w3.org/1999/xlink" x="0px" y="0px"
	 width="128px" height="100px" viewBox="192.007 221.586 128 100" enable-background="new 192.007 221.586 128 100"
	 xml:space="preserve">
<g>
	<g>
		<path fill="#006699" d="M224.625,224.728c-2.644,0-4.977,1.727-5.75,4.254l-25.748,84.237c-0.559,1.819-0.219,3.797,0.913,5.328
			c1.136,1.534,2.927,2.432,4.833,2.432h9.869c2.704,0,5.073-1.798,5.794-4.401l5.638-20.353h27.567l6.144,20.492
			c0.762,2.547,3.103,4.282,5.759,4.282h10.794c1.911,0,3.709-0.914,4.84-2.437c1.134-1.552,1.468-3.529,0.905-5.358l-26.13-84.247
			c-0.781-2.516-3.106-4.23-5.742-4.23H224.625z M223.313,279.875c0,0,5.606-21.349,8.561-32.697
			c0.195-0.753,0.869-1.28,1.647-1.288s1.464,0.502,1.675,1.248l9.402,32.737H223.313z"/>
		<path fill="#006699" d="M300.512,241.834v-15.982c0-2.034-1.647-3.681-3.684-3.681h-6.42c-2.033,0-3.681,1.647-3.681,3.681v15.982
			h-14.957c-2.038,0-3.681,1.646-3.681,3.68v5.915c0,2.034,1.643,3.681,3.681,3.681h14.957v15.978c0,2.033,1.647,3.677,3.681,3.677
			h6.42c2.036,0,3.684-1.647,3.684-3.677V255.11h14.959c2.033,0,3.68-1.647,3.68-3.681v-5.915c0-2.034-1.646-3.68-3.68-3.68H300.512
			z"/>
	</g>
</g>
</svg>
