<?xml version="1.0" encoding="utf-8"?>
<!-- Generator: Adobe Illustrator 16.0.0, SVG Export Plug-In . SVG Version: 6.00 Build 0)  -->
<!DOCTYPE svg PUBLIC "-//W3C//DTD SVG 1.1//EN" "http://www.w3.org/Graphics/SVG/1.1/DTD/svg11.dtd">
<svg version="1.1" id="Capa_1" xmlns="http://www.w3.org/2000/svg" xmlns:xlink="http://www.w3.org/1999/xlink" x="0px" y="0px"
	 width="300px" height="300px" viewBox="-113.67 -97.334 300 300" enable-background="new -113.67 -97.334 300 300"
	 xml:space="preserve">
<g>
	<g id="Layer_1_157_">
		<path fill="#006699" d="M186.039-1.769V-83.43c0-7.52-6.096-13.607-13.614-13.607H90.776c-7.523,0-13.614,6.095-13.614,13.607
			v34.024c-66.48,0-122.336,45.694-138.224,107.281l-14.147-2.488c-2.542-0.438-5.117,0.578-6.653,2.65
			c-1.527,2.071-1.771,4.832-0.604,7.134l14.74,29.109c-25.838,4.211-45.643,26.633-45.643,53.656
			c0,30.018,24.425,54.435,54.441,54.435c27.708,0,50.591-20.83,53.963-47.629h48.103v13.604c0,2.582,1.46,4.934,3.764,6.091
			c2.306,1.148,5.068,0.905,7.139-0.648l23.784-17.848c3.888,26.219,26.49,46.426,53.766,46.426
			c30.022,0.005,54.448-24.412,54.448-54.43c0-27.71-20.83-50.599-47.646-53.963V45.865h13.62c2.568,0,4.932-1.458,6.077-3.757
			c1.157-2.301,0.916-5.065-0.635-7.129l-17.359-23.131h32.31C179.943,11.838,186.039,5.744,186.039-1.769z M-58.927,175.146
			c-15.01,0-27.221-12.203-27.221-27.207s12.21-27.221,27.221-27.221s27.214,12.221,27.214,27.221
			C-31.713,162.943-43.917,175.146-58.927,175.146z M158.831,147.933c0,15.006-12.219,27.21-27.223,27.21
			c-15.003,0-27.207-12.204-27.207-27.21c0-15.002,12.204-27.221,27.207-27.221C146.612,120.712,158.831,132.931,158.831,147.933z
			 M105.104,42.097c1.162,2.306,3.509,3.759,6.08,3.759h13.615v48.103c-24.166,3.046-43.405,21.957-46.968,45.958l-23.799-17.854
			c-2.058-1.541-4.814-1.786-7.125-0.643c-2.299,1.164-3.762,3.509-3.762,6.087v13.607H-4.957
			c-3.083-24.6-22.637-44.124-47.256-47.172c0.021-0.15,0.097-0.285,0.097-0.45c0-0.033,0-0.048,0-0.065l20.596-19.287
			c1.878-1.758,2.601-4.432,1.871-6.906c-0.743-2.479-2.802-4.32-5.345-4.764l-12.634-2.231C-32.898,5.042,17.388-35.8,77.168-35.8
			v34.024c0,7.519,6.085,13.607,13.61,13.607H123.1L105.745,34.97C104.191,37.034,103.946,39.788,105.104,42.097z M158.831-15.382
			h-54.45v-54.435h54.45V-15.382z"/>
	</g>
</g>
</svg>
