<?xml version="1.0" encoding="utf-8"?>
<!-- Generator: Adobe Illustrator 16.0.0, SVG Export Plug-In . SVG Version: 6.00 Build 0)  -->
<!DOCTYPE svg PUBLIC "-//W3C//DTD SVG 1.1//EN" "http://www.w3.org/Graphics/SVG/1.1/DTD/svg11.dtd">
<svg version="1.1" id="Capa_1" xmlns="http://www.w3.org/2000/svg" xmlns:xlink="http://www.w3.org/1999/xlink" x="0px" y="0px"
	 width="130px" height="130px" viewBox="191 191 130 130" enable-background="new 191 191 130 130" xml:space="preserve">
<g>
	<g id="Layer_1_157_">
		<path fill="#006699" d="M320.164,232.669v-35.001c0-3.222-2.612-5.832-5.835-5.832h-34.995c-3.225,0-5.835,2.612-5.835,5.832
			v14.583c-28.494,0-52.434,19.585-59.244,45.982l-6.064-1.067c-1.09-0.188-2.193,0.248-2.851,1.136
			c-0.655,0.887-0.759,2.071-0.259,3.058l6.318,12.476c-11.075,1.805-19.563,11.415-19.563,22.997
			c0,12.866,10.468,23.331,23.334,23.331c11.876,0,21.684-8.928,23.129-20.414h20.617v5.831c0,1.106,0.626,2.114,1.613,2.61
			c0.988,0.492,2.172,0.388,3.06-0.278l10.194-7.65c1.666,11.238,11.353,19.899,23.044,19.899
			c12.868,0.002,23.337-10.463,23.337-23.329c0-11.877-8.928-21.687-20.421-23.129v-20.619h5.838c1.101,0,2.113-0.625,2.604-1.611
			c0.497-0.986,0.393-2.17-0.272-3.055l-7.44-9.914h13.848C317.552,238.501,320.164,235.888,320.164,232.669z M215.17,308.496
			c-6.433,0-11.667-5.231-11.667-11.661s5.234-11.667,11.667-11.667c6.433,0,11.664,5.237,11.664,11.667
			S221.603,308.496,215.17,308.496z M308.503,296.832c0,6.431-5.237,11.662-11.668,11.662c-6.43,0-11.661-5.231-11.661-11.662
			c0-6.429,5.231-11.667,11.661-11.667C303.266,285.165,308.503,290.403,308.503,296.832z M285.475,251.47
			c0.497,0.988,1.504,1.611,2.606,1.611h5.835v20.617c-10.358,1.306-18.604,9.411-20.131,19.699l-10.2-7.653
			c-0.882-0.66-2.063-0.765-3.053-0.275c-0.986,0.499-1.613,1.504-1.613,2.609v5.832h-20.617
			c-1.322-10.544-9.702-18.912-20.254-20.218c0.008-0.065,0.041-0.123,0.041-0.193c0-0.015,0-0.02,0-0.029l8.828-8.266
			c0.805-0.754,1.114-1.9,0.802-2.96c-0.319-1.062-1.201-1.851-2.291-2.042l-5.415-0.956c6.313-23.658,27.866-41.163,53.488-41.163
			v14.583c0,3.222,2.609,5.832,5.834,5.832h13.853l-7.438,9.917C285.084,249.3,284.979,250.481,285.475,251.47z M308.503,226.834
			h-23.338v-23.331h23.338V226.834z"/>
	</g>
</g>
</svg>
