<?xml version="1.0" encoding="utf-8"?>
<!-- Generator: Adobe Illustrator 16.0.0, SVG Export Plug-In . SVG Version: 6.00 Build 0)  -->
<!DOCTYPE svg PUBLIC "-//W3C//DTD SVG 1.1//EN" "http://www.w3.org/Graphics/SVG/1.1/DTD/svg11.dtd">
<svg version="1.1" id="Layer_1" xmlns="http://www.w3.org/2000/svg" xmlns:xlink="http://www.w3.org/1999/xlink" x="0px" y="0px"
	 width="130px" height="130px" viewBox="191 191 130 130" enable-background="new 191 191 130 130" xml:space="preserve">
<g>
	<path fill="#006699" d="M295.382,236.464c11.796,0,21.395-9.598,21.395-21.394c0-11.796-9.599-21.393-21.395-21.393
		s-21.393,9.597-21.393,21.393C273.989,226.867,283.586,236.464,295.382,236.464L295.382,236.464z"/>
	<path fill="#006699" d="M273.989,263.063v53.319c0,1.757,1.423,3.181,3.178,3.181h34.282c1.756,0,3.18-1.424,3.18-3.181v-53.319
		c0-11.223-9.099-20.32-20.319-20.32l0,0C283.086,242.743,273.989,251.84,273.989,263.063z"/>
	<path fill="#006699" d="M255.76,208.57l-55.97-15.992c-0.33-0.094-0.663-0.14-0.994-0.14c-0.766,0-1.514,0.247-2.146,0.724
		c-0.905,0.684-1.424,1.725-1.424,2.859v41.64c0,1.134,0.519,2.176,1.424,2.859c0.904,0.683,2.048,0.895,3.14,0.584l55.971-15.992
		c1.528-0.437,2.597-1.852,2.597-3.442v-9.657C258.357,210.422,257.289,209.006,255.76,208.57z"/>
	<path fill="#006699" d="M243.998,239.497l-14.262,4.539v-4.875l-7.721,2.206v7.949c0,1.231,0.588,2.389,1.582,3.116
		c0.669,0.49,1.47,0.744,2.278,0.744c0.393,0,0.788-0.059,1.171-0.181L249.029,246c1.602-0.51,2.69-1.998,2.69-3.679v-9.441
		l-7.721,2.206V239.497z"/>
</g>
</svg>
