<?xml version="1.0" encoding="utf-8"?>
<!-- Generator: Adobe Illustrator 16.0.0, SVG Export Plug-In . SVG Version: 6.00 Build 0)  -->
<!DOCTYPE svg PUBLIC "-//W3C//DTD SVG 1.1//EN" "http://www.w3.org/Graphics/SVG/1.1/DTD/svg11.dtd">
<svg version="1.1" id="Capa_1" xmlns="http://www.w3.org/2000/svg" xmlns:xlink="http://www.w3.org/1999/xlink" x="0px" y="0px"
	 width="130px" height="130px" viewBox="191 191 130 130" enable-background="new 191 191 130 130" xml:space="preserve">
<g>
	<g>
		<g>
			<path fill="#006699" d="M268.229,303.481c-5.36,0-10.522-1.279-15.138-3.688h-32c-2.936,0-5.324-2.39-5.324-5.324v-16.445
				c0-2.937,2.388-5.324,5.324-5.324h14.461c-0.038-0.649-0.059-1.303-0.059-1.957c0-2.457,0.268-4.873,0.791-7.214h-29.932v-8.961
				h29.593c2.532,0,4.584-2.053,4.584-4.584c0-2.532-2.053-4.585-4.584-4.585h-29.593v-8.963h14.739h53.818
				c2.378,0,4.397,1.569,5.078,3.726c3.408,1.306,6.585,3.187,9.415,5.591v-3.993c0-1.879-0.363-3.675-1.019-5.324H300.1
				c2.532,0,4.586-2.053,4.586-4.584c0-2.533-2.054-4.585-4.586-4.585h-1.282V200.17h1.282c2.532,0,4.586-2.054,4.586-4.585
				c0-2.531-2.054-4.585-4.586-4.585h-79.01c-7.992,0-14.494,6.502-14.494,14.494v16.446c0,1.88,0.364,3.675,1.018,5.324h-11.716
				c-2.532,0-4.584,2.052-4.584,4.584s2.053,4.585,4.584,4.585h1.283v27.095h-1.283c-2.532,0-4.584,2.053-4.584,4.585
				c0,2.531,2.053,4.584,4.584,4.584h11.716c-0.654,1.65-1.018,3.445-1.018,5.325v16.445c0,7.991,6.502,14.494,14.494,14.494h65.545
				l-7.383-7.384C275.716,302.841,272.017,303.481,268.229,303.481z M215.766,205.494c0-2.936,2.388-5.324,5.324-5.324h68.558v8.962
				h-29.593c-2.533,0-4.586,2.053-4.586,4.585c0,2.532,2.053,4.585,4.586,4.585h29.593v8.962H221.09
				c-2.936,0-5.324-2.389-5.324-5.324V205.494z"/>
			<path fill="#006699" d="M315.62,307.411l-22.975-22.974c6.192-10.887,4.654-25.009-4.622-34.284
				c-11.123-11.123-29.219-11.123-40.34,0c-11.123,11.123-11.123,29.221,0,40.342c9.274,9.275,23.397,10.813,34.284,4.62
				l22.975,22.974c2.945,2.946,7.736,2.946,10.679,0C318.565,315.147,318.565,310.356,315.62,307.411z M282.343,284.813
				c-7.988,7.988-20.988,7.988-28.979,0c-7.989-7.99-7.989-20.988,0-28.979c7.99-7.989,20.988-7.989,28.979,0
				C290.33,263.825,290.33,276.823,282.343,284.813z"/>
		</g>
	</g>
</g>
</svg>
