<?xml version="1.0" encoding="utf-8"?>
<!-- Generator: Adobe Illustrator 16.0.0, SVG Export Plug-In . SVG Version: 6.00 Build 0)  -->
<!DOCTYPE svg PUBLIC "-//W3C//DTD SVG 1.1//EN" "http://www.w3.org/Graphics/SVG/1.1/DTD/svg11.dtd">
<svg version="1.1" id="Capa_1" xmlns="http://www.w3.org/2000/svg" xmlns:xlink="http://www.w3.org/1999/xlink" x="0px" y="0px"
	 width="40px" height="40px" viewBox="235.999 236 40 40" enable-background="new 235.999 236 40 40" xml:space="preserve">
<g>
	<path fill="#FFFFFF" d="M256,258.503c2.698,0,9.044-3.247,9.044-11.03c0-6.093-0.821-11.031-9.044-11.031
		s-9.044,4.938-9.044,11.031C246.956,255.256,253.301,258.503,256,258.503z M248.307,245.632c0.635-1.229,2.01-2.647,4.965-2.585
		c0,0,1.763,4.271,10.41,2.354c0.034,0.684,0.045,1.38,0.045,2.074c0,3.803-1.681,6.16-3.088,7.467
		c-1.777,1.647-3.748,2.246-4.64,2.246s-2.863-0.599-4.64-2.246c-1.408-1.307-3.088-3.664-3.088-7.467
		C248.271,246.857,248.281,246.24,248.307,245.632z"/>
	<path fill="#FFFFFF" d="M272.79,269.816c-0.461-2.871-1.411-6.57-3.317-7.885c-1.304-0.897-5.846-3.324-7.785-4.361l-0.033-0.018
		c-0.221-0.117-0.492-0.095-0.689,0.063c-1.017,0.797-2.129,1.334-3.309,1.597c-0.202,0.046-0.369,0.187-0.448,0.378L256,262.521
		l-1.208-2.933c-0.079-0.192-0.247-0.332-0.448-0.378c-1.179-0.263-2.292-0.8-3.309-1.597c-0.198-0.156-0.469-0.181-0.689-0.063
		c-1.918,1.024-6.516,3.501-7.813,4.375c-2.195,1.479-3.155,6.829-3.325,7.888c-0.017,0.104-0.007,0.213,0.028,0.313
		c0.078,0.222,2.093,5.431,16.763,5.431c14.669,0,16.685-5.209,16.763-5.431C272.798,270.027,272.807,269.921,272.79,269.816z
		 M254.303,268.072c0,0.045-0.025,0.085-0.066,0.103l-1.81,0.794l1.81,0.791c0.041,0.018,0.066,0.061,0.066,0.104v0.594
		c0,0.038-0.02,0.072-0.052,0.094c-0.019,0.012-0.039,0.018-0.06,0.018c-0.017,0-0.033-0.004-0.049-0.01l-2.684-1.246
		c-0.04-0.021-0.064-0.06-0.064-0.104v-0.48c0-0.043,0.024-0.084,0.064-0.102l2.684-1.248c0.035-0.016,0.076-0.014,0.107,0.007
		c0.032,0.021,0.052,0.058,0.052,0.095L254.303,268.072L254.303,268.072z M257.033,266.656l-1.197,4.055
		c-0.014,0.047-0.059,0.08-0.107,0.08h-0.564c-0.035,0-0.068-0.018-0.089-0.045s-0.028-0.064-0.019-0.1l1.197-4.056
		c0.014-0.048,0.059-0.08,0.107-0.08h0.565c0.033,0,0.067,0.017,0.089,0.046C257.036,266.585,257.042,266.622,257.033,266.656z
		 M260.605,269.227c0,0.043-0.025,0.082-0.064,0.102l-2.686,1.23c-0.016,0.006-0.03,0.01-0.047,0.01
		c-0.021,0-0.041-0.008-0.062-0.019c-0.031-0.021-0.05-0.056-0.05-0.094v-0.594c0-0.044,0.025-0.085,0.064-0.104l1.85-0.791
		l-1.85-0.794c-0.039-0.017-0.064-0.058-0.064-0.103v-0.593c0-0.037,0.019-0.073,0.05-0.096c0.032-0.021,0.073-0.023,0.108-0.007
		l2.685,1.229c0.039,0.02,0.065,0.059,0.065,0.103V269.227L260.605,269.227z"/>
	<path fill="#FFFFFF" d="M254.261,250.542c1.017-0.531,1.367-2.302,1.382-2.381c0-0.001,0.033-0.119,0.355-0.119h0.025
		c0.25,0,0.328,0.082,0.334,0.138c0.017,0.075,0.382,1.84,1.382,2.363c0.674,0.352,1.479,0.425,2.036,0.425
		c0.714,0,1.434-0.125,1.785-0.312c0.763-0.401,0.83-0.692,1.108-2.376c0.011-0.063,0.028-0.117,0.054-0.159
		c0.008-0.014,0.021-0.029,0.041-0.049c0.071-0.079,0.184-0.198,0.176-0.475c0-0.035,0-0.095,0.002-0.162v-0.016
		c0.004-0.117,0.007-0.249,0.002-0.322c-0.024-0.414-0.383-0.58-0.564-0.609c-0.686-0.141-1.457-0.213-2.297-0.213
		c-0.361,0-0.736,0.015-1.109,0.041l-0.066,0.005c-0.766,0.054-1.188,0.084-1.699,0.313c-0.104,0.046-0.219,0.103-0.343,0.166
		c-0.177,0.091-0.438,0.192-0.571,0.222c-0.227,0.051-0.359,0.051-0.585,0c-0.133-0.029-0.396-0.131-0.571-0.222
		c-0.125-0.063-0.238-0.12-0.342-0.166c-0.512-0.229-0.934-0.259-1.699-0.313l-0.065-0.005c-0.375-0.026-0.748-0.041-1.11-0.041
		c-0.84,0-1.611,0.072-2.289,0.211c-0.188,0.031-0.549,0.199-0.572,0.611c-0.004,0.075-0.002,0.213,0,0.322l0.002,0.048
		c0,0.054,0.002,0.101,0,0.13c-0.006,0.276,0.104,0.396,0.18,0.478c0.017,0.018,0.031,0.032,0.039,0.046
		c0.023,0.042,0.042,0.095,0.053,0.159c0.277,1.683,0.346,1.974,1.107,2.376c0.354,0.186,1.072,0.311,1.787,0.311
		C252.781,250.967,253.586,250.893,254.261,250.542z M257.186,247.585c0.019-0.045,0.23-0.44,2.112-0.551
		c0.326-0.019,0.601-0.028,0.843-0.028c1.047,0,1.373,0.178,1.562,0.465c0.112,0.172,0.19,0.551,0.192,0.781
		c0.002,0.525-0.101,1.458-0.812,1.803c-0.336,0.162-0.844,0.26-1.356,0.26c-0.979,0-1.754-0.325-2.078-0.871
		C256.949,248.271,257.184,247.591,257.186,247.585z M250.105,248.252c0-0.232,0.08-0.609,0.191-0.782
		c0.188-0.286,0.514-0.465,1.563-0.465c0.24,0,0.517,0.009,0.841,0.028c1.844,0.107,2.089,0.49,2.118,0.562
		c0.002,0.007,0.221,0.693-0.467,1.851c-0.324,0.544-1.102,0.869-2.078,0.869c-0.513,0-1.021-0.097-1.356-0.26
		C250.206,249.71,250.104,248.777,250.105,248.252z"/>
</g>
</svg>
