<?xml version="1.0" encoding="utf-8"?>
<!-- Generator: Adobe Illustrator 16.0.0, SVG Export Plug-In . SVG Version: 6.00 Build 0)  -->
<!DOCTYPE svg PUBLIC "-//W3C//DTD SVG 1.1//EN" "http://www.w3.org/Graphics/SVG/1.1/DTD/svg11.dtd">
<svg version="1.1" id="Capa_1" xmlns="http://www.w3.org/2000/svg" xmlns:xlink="http://www.w3.org/1999/xlink" x="0px" y="0px"
	 width="40px" height="40px" viewBox="236 236 40 40" enable-background="new 236 236 40 40" xml:space="preserve">
<g>
	<path fill="#FFCC00" d="M256,258.503c2.698,0,9.044-3.247,9.044-11.03c0-6.093-0.821-11.031-9.044-11.031
		c-8.222,0-9.044,4.938-9.044,11.031C246.956,255.256,253.301,258.503,256,258.503z M248.307,245.632
		c0.635-1.229,2.01-2.648,4.965-2.585c0,0,1.762,4.272,10.409,2.354c0.035,0.683,0.046,1.379,0.046,2.073
		c0,3.804-1.681,6.161-3.089,7.468c-1.776,1.647-3.747,2.246-4.639,2.246c-0.892,0-2.863-0.599-4.639-2.246
		c-1.409-1.307-3.089-3.665-3.089-7.468C248.272,246.857,248.281,246.24,248.307,245.632z"/>
	<path fill="#FFCC00" d="M272.79,269.816c-0.461-2.871-1.411-6.57-3.317-7.885c-1.304-0.897-5.846-3.324-7.786-4.361l-0.032-0.017
		c-0.222-0.118-0.493-0.095-0.69,0.062c-1.017,0.797-2.129,1.334-3.309,1.597c-0.202,0.046-0.369,0.186-0.448,0.378L256,262.521
		l-1.208-2.932c-0.079-0.192-0.247-0.332-0.448-0.378c-1.179-0.263-2.292-0.8-3.309-1.597c-0.198-0.156-0.469-0.18-0.69-0.062
		c-1.917,1.024-6.515,3.501-7.812,4.375c-2.195,1.479-3.155,6.829-3.325,7.888c-0.017,0.104-0.007,0.212,0.029,0.313
		c0.078,0.222,2.092,5.431,16.762,5.431c14.669,0,16.684-5.209,16.763-5.431C272.798,270.028,272.807,269.921,272.79,269.816z
		 M254.303,268.072c0,0.045-0.026,0.085-0.067,0.103l-1.809,0.794l1.809,0.791c0.041,0.018,0.067,0.06,0.067,0.103v0.594
		c0,0.038-0.02,0.073-0.052,0.094c-0.018,0.012-0.039,0.018-0.06,0.018c-0.016,0-0.033-0.004-0.048-0.01l-2.684-1.247
		c-0.04-0.02-0.065-0.059-0.065-0.103v-0.48c0-0.044,0.025-0.084,0.065-0.102l2.684-1.248c0.035-0.016,0.076-0.014,0.107,0.007
		c0.032,0.021,0.052,0.058,0.052,0.095V268.072L254.303,268.072z M257.033,266.656l-1.197,4.055c-0.014,0.047-0.058,0.08-0.107,0.08
		h-0.565c-0.035,0-0.068-0.017-0.089-0.045c-0.021-0.027-0.028-0.064-0.018-0.099l1.197-4.056c0.014-0.048,0.058-0.08,0.107-0.08
		h0.566c0.033,0,0.067,0.017,0.089,0.046C257.036,266.585,257.042,266.622,257.033,266.656z M260.606,269.226
		c0,0.043-0.026,0.083-0.065,0.102l-2.685,1.23c-0.016,0.006-0.031,0.01-0.047,0.01c-0.021,0-0.042-0.007-0.062-0.018
		c-0.031-0.021-0.05-0.056-0.05-0.094v-0.594c0-0.044,0.025-0.085,0.065-0.103l1.85-0.791l-1.85-0.794
		c-0.04-0.017-0.065-0.058-0.065-0.103v-0.593c0-0.037,0.019-0.073,0.05-0.095c0.033-0.021,0.073-0.023,0.108-0.007l2.685,1.229
		c0.039,0.02,0.065,0.059,0.065,0.103V269.226z"/>
	<path fill="#FFCC00" d="M254.261,250.542c1.016-0.531,1.367-2.302,1.382-2.381c0-0.001,0.033-0.119,0.355-0.119l0.026,0
		c0.249,0,0.327,0.082,0.334,0.138c0.016,0.075,0.381,1.84,1.381,2.363c0.674,0.352,1.479,0.425,2.036,0.425
		c0.714,0,1.434-0.125,1.786-0.312c0.762-0.401,0.83-0.692,1.108-2.376c0.011-0.063,0.028-0.117,0.053-0.159
		c0.008-0.014,0.021-0.029,0.041-0.049c0.072-0.079,0.184-0.198,0.177-0.474c-0.001-0.035,0-0.095,0.002-0.162v-0.016
		c0.003-0.117,0.006-0.249,0.002-0.323c-0.025-0.414-0.384-0.58-0.565-0.609c-0.685-0.141-1.457-0.212-2.297-0.212
		c-0.362,0-0.736,0.014-1.11,0.041l-0.066,0.004c-0.765,0.054-1.188,0.084-1.699,0.313c-0.104,0.046-0.219,0.103-0.343,0.166
		c-0.176,0.091-0.438,0.192-0.571,0.222c-0.226,0.05-0.359,0.05-0.585,0c-0.133-0.03-0.395-0.131-0.571-0.222
		c-0.125-0.064-0.239-0.12-0.342-0.166c-0.512-0.229-0.934-0.259-1.7-0.313l-0.065-0.004c-0.375-0.027-0.748-0.041-1.11-0.041
		c-0.84,0-1.612,0.071-2.289,0.21c-0.188,0.031-0.549,0.199-0.573,0.611c-0.004,0.076-0.001,0.213,0.001,0.323l0.001,0.048
		c0.001,0.054,0.002,0.101,0.001,0.13c-0.007,0.276,0.103,0.395,0.179,0.477c0.017,0.018,0.031,0.033,0.039,0.046
		c0.024,0.042,0.042,0.095,0.053,0.159c0.277,1.683,0.345,1.974,1.108,2.376c0.354,0.186,1.071,0.311,1.786,0.311
		C252.781,250.967,253.586,250.893,254.261,250.542z M257.186,247.585c0.018-0.045,0.23-0.441,2.112-0.551
		c0.326-0.019,0.601-0.028,0.842-0.028c1.048,0,1.374,0.178,1.562,0.465c0.113,0.172,0.191,0.55,0.192,0.781
		c0.003,0.525-0.1,1.458-0.811,1.802c-0.336,0.163-0.844,0.26-1.357,0.26c-0.978,0-1.754-0.325-2.077-0.87
		C256.949,248.271,257.184,247.591,257.186,247.585z M250.106,248.252c0-0.233,0.08-0.61,0.191-0.782
		c0.188-0.287,0.514-0.465,1.563-0.465c0.24,0,0.516,0.009,0.84,0.028c1.844,0.107,2.089,0.49,2.118,0.562
		c0.002,0.006,0.221,0.693-0.466,1.85c-0.325,0.544-1.102,0.87-2.078,0.87c-0.513,0-1.021-0.097-1.357-0.26
		C250.206,249.71,250.104,248.778,250.106,248.252z"/>
</g>
</svg>
