<?xml version="1.0" encoding="utf-8"?>
<!-- Generator: Adobe Illustrator 16.0.0, SVG Export Plug-In . SVG Version: 6.00 Build 0)  -->
<!DOCTYPE svg PUBLIC "-//W3C//DTD SVG 1.1//EN" "http://www.w3.org/Graphics/SVG/1.1/DTD/svg11.dtd">
<svg version="1.1" id="Capa_1" xmlns="http://www.w3.org/2000/svg" xmlns:xlink="http://www.w3.org/1999/xlink" x="0px" y="0px"
	 width="40px" height="40px" viewBox="236 236 40 40" enable-background="new 236 236 40 40" xml:space="preserve">
<g>
	<g id="content-paste">
		<path fill="#FFFFFF" d="M268.516,239.909h-7.51c-0.715-2.146-2.682-3.576-5.006-3.576s-4.292,1.431-5.006,3.576h-7.51
			c-1.967,0-3.575,1.608-3.575,3.575v28.606c0,1.966,1.608,3.575,3.575,3.575h25.029c1.969,0,3.576-1.609,3.576-3.575v-28.606
			C272.091,241.518,270.482,239.909,268.516,239.909z M256,239.909c1.072,0,1.787,0.715,1.787,1.788
			c0,1.072-0.715,1.787-1.787,1.787c-1.073,0-1.788-0.715-1.788-1.787S254.927,239.909,256,239.909z M268.516,272.091h-25.031
			v-28.606h3.576v5.365h17.879v-5.365h3.576V272.091L268.516,272.091z"/>
	</g>
</g>
</svg>
