<?xml version="1.0" encoding="utf-8"?>
<!-- Generator: Adobe Illustrator 16.0.0, SVG Export Plug-In . SVG Version: 6.00 Build 0)  -->
<!DOCTYPE svg PUBLIC "-//W3C//DTD SVG 1.1//EN" "http://www.w3.org/Graphics/SVG/1.1/DTD/svg11.dtd">
<svg version="1.1" id="Capa_1" xmlns="http://www.w3.org/2000/svg" xmlns:xlink="http://www.w3.org/1999/xlink" x="0px" y="0px"
	 width="40px" height="40px" viewBox="236 236 40 40" enable-background="new 236 236 40 40" xml:space="preserve">
<g>
	<g>
		<path fill="#006699" d="M249.449,259.995l-5.743-4.829l5.767-4.952c1.252-1.076,1.396-2.963,0.321-4.214
			c-1.075-1.25-2.964-1.396-4.216-0.319l-8.434,7.243c-0.664,0.573-1.045,1.408-1.041,2.284c0.005,0.877,0.394,1.707,1.064,2.272
			l8.436,7.09c0.559,0.47,1.242,0.699,1.92,0.699c0.853,0,1.697-0.361,2.288-1.063C250.873,262.945,250.712,261.059,249.449,259.995
			z"/>
		<path fill="#006699" d="M274.867,252.925l-8.436-7.243c-1.252-1.075-3.14-0.93-4.214,0.321c-1.07,1.251-0.932,3.137,0.32,4.213
			l5.768,4.953l-5.739,4.829c-1.265,1.064-1.428,2.945-0.362,4.211c0.591,0.7,1.431,1.064,2.288,1.064
			c0.677,0,1.36-0.234,1.92-0.701l8.436-7.089c0.671-0.564,1.063-1.396,1.064-2.272
			C275.913,254.333,275.535,253.498,274.867,252.925z"/>
		<path fill="#006699" d="M258.664,240.343c-1.618-0.311-3.19,0.748-3.503,2.367l-4.923,25.449c-0.314,1.621,0.745,3.19,2.365,3.503
			c0.191,0.036,0.383,0.055,0.571,0.055c1.403,0,2.653-0.992,2.931-2.418l4.924-25.449
			C261.346,242.227,260.284,240.658,258.664,240.343z"/>
	</g>
</g>
</svg>
