<?xml version="1.0" encoding="utf-8"?>
<!-- Generator: Adobe Illustrator 16.0.0, SVG Export Plug-In . SVG Version: 6.00 Build 0)  -->
<!DOCTYPE svg PUBLIC "-//W3C//DTD SVG 1.1//EN" "http://www.w3.org/Graphics/SVG/1.1/DTD/svg11.dtd">
<svg version="1.1" id="Layer_1" xmlns="http://www.w3.org/2000/svg" xmlns:xlink="http://www.w3.org/1999/xlink" x="0px" y="0px"
	 width="40px" height="40px" viewBox="236 236 40 40" enable-background="new 236 236 40 40" xml:space="preserve">
<g>
	<g>
		<path fill="#FFCC00" d="M266.519,275.68l-10.472-5.792l-10.472,5.792c-0.553,0.31-1.235,0.269-1.755-0.088
			c-0.52-0.366-0.788-0.992-0.682-1.617l2.023-12.39l-8.547-8.758c-0.43-0.446-0.577-1.088-0.381-1.673
			c0.195-0.585,0.707-1.016,1.324-1.105l11.731-1.795l5.265-11.219c0.268-0.577,0.853-0.951,1.495-0.951s1.226,0.374,1.502,0.951
			l5.265,11.219l11.731,1.795c0.617,0.098,1.121,0.521,1.324,1.105c0.194,0.585,0.049,1.235-0.382,1.673l-8.546,8.758l2.022,12.39
			c0.105,0.625-0.162,1.251-0.683,1.617C267.988,275.786,267.339,276.104,266.519,275.68L266.519,275.68z M241.228,252.827
			l6.881,7.053c0.366,0.373,0.528,0.901,0.447,1.413l-1.608,9.846l8.287-4.581c0.504-0.276,1.104-0.276,1.608,0l8.287,4.581
			l-1.608-9.846c-0.081-0.521,0.081-1.04,0.447-1.413l6.88-7.053l-9.432-1.438c-0.545-0.082-1.016-0.431-1.251-0.934l-4.119-8.823
			l-4.136,8.814c-0.235,0.496-0.707,0.854-1.251,0.935L241.228,252.827L241.228,252.827z"/>
	</g>
</g>
</svg>
