<?xml version="1.0" encoding="utf-8"?>
<!-- Generator: Adobe Illustrator 16.0.0, SVG Export Plug-In . SVG Version: 6.00 Build 0)  -->
<!DOCTYPE svg PUBLIC "-//W3C//DTD SVG 1.1//EN" "http://www.w3.org/Graphics/SVG/1.1/DTD/svg11.dtd">
<svg version="1.1" id="Layer_1" xmlns="http://www.w3.org/2000/svg" xmlns:xlink="http://www.w3.org/1999/xlink" x="0px" y="0px"
	 width="40px" height="40px" viewBox="0.096 0 40 40" enable-background="new 0.096 0 40 40" xml:space="preserve">
<g>
	<g>
		<path fill="#FFFFFF" d="M30.564,39.692l-10.473-5.791L9.62,39.692c-0.554,0.311-1.235,0.27-1.755-0.088
			c-0.521-0.365-0.788-0.992-0.682-1.617l2.022-12.39L0.658,16.84c-0.43-0.446-0.576-1.089-0.381-1.673
			c0.195-0.586,0.707-1.017,1.324-1.105l11.731-1.795l5.265-11.219c0.268-0.577,0.854-0.951,1.495-0.951s1.226,0.374,1.502,0.951
			l5.265,11.219l11.731,1.795c0.617,0.098,1.121,0.521,1.324,1.105c0.194,0.584,0.049,1.234-0.382,1.673l-8.547,8.758l2.022,12.39
			c0.104,0.625-0.161,1.252-0.683,1.617C32.033,39.799,31.384,40.116,30.564,39.692L30.564,39.692z M5.273,16.84l6.881,7.053
			c0.365,0.373,0.527,0.901,0.447,1.413l-1.608,9.846l8.286-4.58c0.505-0.276,1.104-0.276,1.608,0l8.287,4.58l-1.608-9.846
			c-0.08-0.521,0.082-1.04,0.447-1.413l6.881-7.053l-9.433-1.438c-0.545-0.082-1.017-0.431-1.251-0.934l-4.119-8.823l-4.136,8.813
			c-0.235,0.496-0.707,0.854-1.251,0.936L5.273,16.84L5.273,16.84z"/>
	</g>
</g>
</svg>
