<?xml version="1.0" encoding="utf-8"?>
<!-- Generator: Adobe Illustrator 16.0.0, SVG Export Plug-In . SVG Version: 6.00 Build 0)  -->
<!DOCTYPE svg PUBLIC "-//W3C//DTD SVG 1.1//EN" "http://www.w3.org/Graphics/SVG/1.1/DTD/svg11.dtd">
<svg version="1.1" id="Layer_1" xmlns="http://www.w3.org/2000/svg" xmlns:xlink="http://www.w3.org/1999/xlink" x="0px" y="0px"
	 width="198px" height="198px" viewBox="0 0 198 198" enable-background="new 0 0 198 198" xml:space="preserve">
<circle fill="#016699" cx="99" cy="99" r="97.5"/>
<g>
	<path fill="#FFFFFF" d="M36.032,110.523L30.592,87.61h5.542l1.734,9.451c0.51,2.72,0.986,5.678,1.36,7.989h0.068
		c0.374-2.481,0.918-5.235,1.496-8.057l1.938-9.383h5.507l1.835,9.655c0.51,2.686,0.884,5.134,1.224,7.684h0.068
		c0.34-2.55,0.85-5.236,1.326-7.955l1.87-9.383h5.27l-5.916,22.914h-5.609l-1.938-9.858c-0.442-2.313-0.816-4.454-1.088-7.072
		h-0.068c-0.408,2.583-0.782,4.759-1.326,7.072l-2.176,9.858H36.032z"/>
	<path fill="#FFFFFF" d="M64.897,103.86c0.17,2.142,2.278,3.161,4.691,3.161c1.768,0,3.196-0.238,4.59-0.68l0.68,3.502
		c-1.7,0.68-3.773,1.02-6.017,1.02c-5.644,0-8.873-3.264-8.873-8.465c0-4.216,2.618-8.873,8.397-8.873
		c5.372,0,7.411,4.181,7.411,8.295c0,0.884-0.102,1.666-0.17,2.04H64.897z M70.983,100.324c0-1.258-0.544-3.365-2.924-3.365
		c-2.176,0-3.06,1.972-3.195,3.365H70.983z"/>
	<path fill="#FFFFFF" d="M78.872,86.386h5.167v24.138h-5.167V86.386z"/>
	<path fill="#FFFFFF" d="M100.698,110.115c-0.917,0.408-2.651,0.748-4.623,0.748c-5.372,0-8.805-3.264-8.805-8.499
		c0-4.861,3.332-8.839,9.519-8.839c1.36,0,2.855,0.238,3.943,0.646l-0.816,3.842c-0.612-0.271-1.53-0.51-2.89-0.51
		c-2.72,0-4.488,1.938-4.454,4.657c0,3.06,2.04,4.658,4.556,4.658c1.224,0,2.176-0.205,2.958-0.511L100.698,110.115z"/>
	<path fill="#FFFFFF" d="M119.603,102.024c0,6.085-4.317,8.873-8.771,8.873c-4.861,0-8.601-3.196-8.601-8.567
		s3.535-8.805,8.873-8.805C116.203,93.525,119.603,97.026,119.603,102.024z M107.567,102.194c0,2.855,1.19,4.997,3.4,4.997
		c2.006,0,3.297-2.006,3.297-4.997c0-2.482-0.951-4.998-3.297-4.998C108.485,97.196,107.567,99.747,107.567,102.194z"/>
	<path fill="#FFFFFF" d="M122.8,99.202c0-2.073-0.068-3.842-0.137-5.303h4.352l0.238,2.245h0.102
		c0.714-1.055,2.176-2.618,5.032-2.618c2.142,0,3.842,1.088,4.556,2.821h0.067c0.612-0.85,1.36-1.53,2.142-2.006
		c0.918-0.544,1.938-0.815,3.162-0.815c3.195,0,5.609,2.243,5.609,7.207v9.791h-5.031v-9.043c0-2.414-0.782-3.808-2.448-3.808
		c-1.189,0-2.039,0.816-2.38,1.802c-0.136,0.374-0.204,0.918-0.204,1.325v9.724h-5.031v-9.315c0-2.107-0.748-3.535-2.38-3.535
		c-1.325,0-2.107,1.02-2.413,1.869c-0.17,0.408-0.204,0.885-0.204,1.293v9.688H122.8V99.202z"/>
	<path fill="#FFFFFF" d="M156.018,103.86c0.17,2.142,2.277,3.161,4.691,3.161c1.768,0,3.195-0.238,4.589-0.68l0.681,3.502
		c-1.7,0.68-3.773,1.02-6.018,1.02c-5.644,0-8.873-3.264-8.873-8.465c0-4.216,2.617-8.873,8.396-8.873
		c5.372,0,7.412,4.181,7.412,8.295c0,0.884-0.103,1.666-0.17,2.04H156.018z M162.103,100.324c0-1.258-0.544-3.365-2.924-3.365
		c-2.176,0-3.06,1.972-3.195,3.365H162.103z"/>
</g>
</svg>
