<?xml version="1.0" encoding="utf-8"?>
<!-- Generator: Adobe Illustrator 16.0.0, SVG Export Plug-In . SVG Version: 6.00 Build 0)  -->
<!DOCTYPE svg PUBLIC "-//W3C//DTD SVG 1.1//EN" "http://www.w3.org/Graphics/SVG/1.1/DTD/svg11.dtd">
<svg version="1.1" id="Layer_1" xmlns="http://www.w3.org/2000/svg" xmlns:xlink="http://www.w3.org/1999/xlink" x="0px" y="0px"
	 width="198px" height="198px" viewBox="0 0 198 198" enable-background="new 0 0 198 198" xml:space="preserve">
<circle fill="#016699" cx="99" cy="99" r="97.5"/>
<g>
	<path fill="#FFFFFF" d="M51.655,87.916c1.904-0.306,4.386-0.476,7.003-0.476c4.352,0,7.173,0.782,9.383,2.448
		c2.38,1.768,3.876,4.589,3.876,8.635c0,4.386-1.598,7.411-3.808,9.281c-2.414,2.006-6.085,2.958-10.573,2.958
		c-2.686,0-4.589-0.17-5.881-0.34V87.916z M56.857,106.613c0.442,0.103,1.156,0.103,1.802,0.103c4.691,0.034,7.751-2.55,7.751-8.023
		c0.034-4.759-2.753-7.275-7.207-7.275c-1.156,0-1.904,0.102-2.346,0.204V106.613z"/>
	<path fill="#FFFFFF" d="M79.127,103.86c0.17,2.142,2.278,3.161,4.692,3.161c1.768,0,3.195-0.238,4.589-0.68l0.68,3.502
		c-1.7,0.68-3.773,1.02-6.017,1.02c-5.644,0-8.873-3.264-8.873-8.465c0-4.216,2.618-8.873,8.397-8.873
		c5.372,0,7.411,4.181,7.411,8.295c0,0.884-0.102,1.666-0.17,2.04H79.127z M85.212,100.324c0-1.258-0.544-3.365-2.924-3.365
		c-2.176,0-3.06,1.972-3.195,3.365H85.212z"/>
	<path fill="#FFFFFF" d="M93.102,86.386h5.167v24.138h-5.167V86.386z"/>
	<path fill="#FFFFFF" d="M106.43,103.86c0.17,2.142,2.277,3.161,4.691,3.161c1.768,0,3.195-0.238,4.588-0.68l0.682,3.502
		c-1.701,0.68-3.775,1.02-6.018,1.02c-5.645,0-8.873-3.264-8.873-8.465c0-4.216,2.617-8.873,8.396-8.873
		c5.371,0,7.412,4.181,7.412,8.295c0,0.884-0.104,1.666-0.17,2.04H106.43z M112.514,100.324c0-1.258-0.543-3.365-2.924-3.365
		c-2.176,0-3.059,1.972-3.195,3.365H112.514z"/>
	<path fill="#FFFFFF" d="M126.184,89.14v4.759h3.705v3.808h-3.705v6.018c0,2.006,0.475,2.924,2.039,2.924
		c0.646,0,1.156-0.068,1.529-0.137l0.035,3.91c-0.68,0.271-1.904,0.441-3.367,0.441c-1.664,0-3.059-0.578-3.875-1.428
		c-0.951-0.986-1.428-2.584-1.428-4.93v-6.799h-2.209v-3.808h2.209v-3.604L126.184,89.14z"/>
	<path fill="#FFFFFF" d="M136.689,103.86c0.17,2.142,2.277,3.161,4.691,3.161c1.768,0,3.195-0.238,4.588-0.68l0.682,3.502
		c-1.701,0.68-3.775,1.02-6.018,1.02c-5.645,0-8.873-3.264-8.873-8.465c0-4.216,2.617-8.873,8.396-8.873
		c5.371,0,7.412,4.181,7.412,8.295c0,0.884-0.104,1.666-0.17,2.04H136.689z M142.773,100.324c0-1.258-0.543-3.365-2.924-3.365
		c-2.176,0-3.059,1.972-3.195,3.365H142.773z"/>
</g>
</svg>
