<?xml version="1.0" encoding="utf-8"?>
<!-- Generator: Adobe Illustrator 16.0.0, SVG Export Plug-In . SVG Version: 6.00 Build 0)  -->
<!DOCTYPE svg PUBLIC "-//W3C//DTD SVG 1.1//EN" "http://www.w3.org/Graphics/SVG/1.1/DTD/svg11.dtd">
<svg version="1.1" id="Layer_1" xmlns="http://www.w3.org/2000/svg" xmlns:xlink="http://www.w3.org/1999/xlink" x="0px" y="0px"
	 width="198px" height="198px" viewBox="0 0 198 198" enable-background="new 0 0 198 198" xml:space="preserve">
<circle fill="#016699" cx="99" cy="99" r="97.5"/>
<g enable-background="new    ">
	<path fill="#FFFFFF" d="M40.964,108.212c-0.34-0.272-0.476-0.477-0.17-1.021l1.224-2.107c0.272-0.476,0.85-0.476,1.156-0.238
		c1.394,1.055,2.923,2.108,5.133,2.108c1.768,0,3.094-1.156,3.094-2.618c0-1.733-1.462-2.924-4.317-4.079
		c-3.196-1.292-6.392-3.332-6.392-7.344c0-3.025,2.244-6.527,7.649-6.527c3.467,0,6.119,1.768,6.799,2.278
		c0.34,0.203,0.442,0.781,0.204,1.121l-1.292,1.938c-0.272,0.407-0.782,0.68-1.19,0.407c-1.462-0.918-2.856-1.869-4.726-1.869
		c-1.938,0-2.992,1.088-2.992,2.38c0,1.598,1.258,2.686,4.012,3.808c3.297,1.325,7.105,3.297,7.105,7.683
		c0,3.502-3.025,6.731-7.819,6.731C44.16,110.863,41.95,109.062,40.964,108.212z"/>
	<path fill="#FFFFFF" d="M58.917,89.411c0-1.495,1.156-2.686,2.686-2.686s2.72,1.19,2.72,2.686c0,1.496-1.19,2.72-2.72,2.72
		S58.917,90.907,58.917,89.411z M59.529,95.564c0-0.441,0.374-0.747,0.748-0.747h2.753c0.374,0,0.748,0.306,0.748,0.747v14.211
		c0,0.408-0.374,0.748-0.748,0.748h-2.753c-0.374,0-0.748-0.34-0.748-0.748V95.564z"/>
	<path fill="#FFFFFF" d="M82.987,110.693c0,5.065-3.536,7.615-7.819,7.615c-2.583,0-4.896-1.189-5.643-1.768
		c-0.238-0.204-0.34-0.612-0.17-0.884l1.02-2.21c0.136-0.306,0.578-0.408,0.918-0.204c0.578,0.34,2.108,1.189,3.74,1.189
		c2.414,0,3.706-0.815,3.706-3.739v-0.441c-0.714,0.271-2.21,0.646-3.773,0.646c-4.692,0-7.785-3.604-7.785-8.193
		c0-4.76,3.229-8.228,7.513-8.228c3.332,0,5.133,2.347,5.133,2.347l0.408-1.259c0.136-0.441,0.374-0.747,0.748-0.747h1.258
		c0.408,0,0.748,0.34,0.748,0.747V110.693z M78.737,100.528c-0.34-0.884-1.428-2.176-3.468-2.176c-2.448,0-3.706,2.142-3.706,4.352
		s1.326,4.317,3.91,4.317c1.972,0,3.264-0.884,3.264-0.884V100.528z"/>
	<path fill="#FFFFFF" d="M87.34,95.564c0-0.441,0.374-0.747,0.748-0.747h1.292c0.374,0,0.544,0.17,0.646,0.476l0.578,1.462
		c0.578-0.646,2.04-2.278,5.065-2.278c4.997,0,6.29,3.366,6.29,7.174v8.125c0,0.408-0.375,0.748-0.748,0.748h-2.754
		c-0.408,0-0.748-0.34-0.748-0.748v-8.125c0-2.04-0.816-3.298-2.72-3.298c-2.04,0-3.026,1.36-3.4,2.448v8.975
		c0,0.578-0.238,0.748-0.986,0.748h-2.516c-0.374,0-0.748-0.34-0.748-0.748V95.564z"/>
	<path fill="#FFFFFF" d="M114.777,87.372c0-0.34,0.306-0.646,0.646-0.646h3.229c0.375,0,0.646,0.307,0.646,0.646v14.177
		c0,2.89,1.972,4.895,4.93,4.895c2.957,0,4.963-2.005,4.963-4.861v-14.21c0-0.34,0.272-0.646,0.646-0.646h3.229
		c0.34,0,0.646,0.307,0.646,0.646v14.414c0,5.168-4.113,9.077-9.484,9.077c-5.338,0-9.451-3.909-9.451-9.077V87.372z"/>
	<path fill="#FFFFFF" d="M145.921,110.897c-1.563,0-3.06-0.374-3.774-0.646v7.615c0,0.373-0.373,0.747-0.748,0.747h-2.753
		c-0.408,0-0.748-0.374-0.748-0.747V95.564c0-0.407,0.34-0.747,0.748-0.747h1.258c0.374,0,0.612,0.306,0.748,0.747l0.407,1.259
		c0,0,1.803-2.347,5.134-2.347c4.284,0,7.514,3.468,7.514,8.228C153.706,107.294,150.612,110.897,145.921,110.897z M142.146,106.138
		c0,0,1.293,0.884,3.264,0.884c2.584,0,3.91-2.107,3.91-4.317s-1.258-4.352-3.705-4.352c-2.041,0-3.129,1.292-3.469,2.176V106.138z"
		/>
</g>
</svg>
