<?xml version="1.0" encoding="utf-8"?>
<!-- Generator: Adobe Illustrator 16.0.0, SVG Export Plug-In . SVG Version: 6.00 Build 0)  -->
<!DOCTYPE svg PUBLIC "-//W3C//DTD SVG 1.1//EN" "http://www.w3.org/Graphics/SVG/1.1/DTD/svg11.dtd">
<svg version="1.1" id="Layer_1" xmlns="http://www.w3.org/2000/svg" xmlns:xlink="http://www.w3.org/1999/xlink" x="0px" y="0px"
	 width="198px" height="198px" viewBox="0 0 198 198" enable-background="new 0 0 198 198" xml:space="preserve">
<circle fill="#016699" cx="99" cy="99" r="97.5"/>
<g>
	<path fill="#FFFFFF" d="M57.284,87.61h5.202v18.562h9.111v4.352H57.284V87.61z"/>
	<path fill="#FFFFFF" d="M90.603,102.025c0,6.085-4.317,8.873-8.771,8.873c-4.862,0-8.601-3.196-8.601-8.568
		c0-5.371,3.536-8.804,8.873-8.804C87.203,93.526,90.603,97.027,90.603,102.025z M78.568,102.195c0,2.855,1.19,4.997,3.399,4.997
		c2.006,0,3.298-2.006,3.298-4.997c0-2.482-0.952-4.998-3.298-4.998C79.486,97.197,78.568,99.747,78.568,102.195z"/>
	<path fill="#FFFFFF" d="M109.778,93.899c-0.068,1.054-0.136,2.448-0.136,4.93v9.281c0,3.195-0.646,5.813-2.516,7.479
		c-1.836,1.563-4.318,2.039-6.766,2.039c-2.176,0-4.488-0.441-5.983-1.291l1.02-3.91c1.054,0.611,2.89,1.258,4.828,1.258
		c2.447,0,4.317-1.326,4.317-4.385v-1.088h-0.068c-0.985,1.393-2.583,2.176-4.487,2.176c-4.114,0-7.037-3.332-7.037-8.126
		c0-5.337,3.467-8.737,7.547-8.737c2.278,0,3.706,0.986,4.556,2.346h0.068l0.17-1.972H109.778z M104.475,100.665
		c0-0.341-0.034-0.68-0.102-0.952c-0.374-1.36-1.36-2.278-2.788-2.278c-1.869,0-3.399,1.7-3.399,4.725
		c0,2.482,1.224,4.42,3.399,4.42c1.326,0,2.38-0.884,2.72-2.107c0.136-0.374,0.17-0.918,0.17-1.359V100.665z"/>
	<path fill="#FFFFFF" d="M119.129,89.276c0,1.428-1.088,2.584-2.788,2.584c-1.631,0-2.719-1.156-2.686-2.584
		c-0.033-1.496,1.055-2.618,2.72-2.618C118.041,86.658,119.095,87.78,119.129,89.276z M113.792,110.523V93.899h5.167v16.624H113.792
		z"/>
	<path fill="#FFFFFF" d="M123.107,99.203c0-2.074-0.068-3.842-0.137-5.304h4.488l0.237,2.278h0.103
		c0.68-1.054,2.38-2.651,5.133-2.651c3.4,0,5.95,2.244,5.95,7.139v9.858h-5.168v-9.213c0-2.142-0.748-3.604-2.617-3.604
		c-1.429,0-2.278,0.986-2.618,1.938c-0.136,0.306-0.204,0.816-0.204,1.292v9.586h-5.167V99.203z"/>
</g>
</svg>
