<?xml version="1.0" encoding="utf-8"?>
<!-- Generator: Adobe Illustrator 16.0.0, SVG Export Plug-In . SVG Version: 6.00 Build 0)  -->
<!DOCTYPE svg PUBLIC "-//W3C//DTD SVG 1.1//EN" "http://www.w3.org/Graphics/SVG/1.1/DTD/svg11.dtd">
<svg version="1.1" id="Layer_1" xmlns="http://www.w3.org/2000/svg" xmlns:xlink="http://www.w3.org/1999/xlink" x="0px" y="0px"
	 width="198px" height="198px" viewBox="0 0 198 198" enable-background="new 0 0 198 198" xml:space="preserve">
<circle fill="#016699" cx="99" cy="99" r="97.5"/>
<g enable-background="new    ">
	<path fill="#FFFFFF" d="M45.773,87.916c1.36-0.272,4.114-0.477,6.697-0.477c3.162,0,5.1,0.307,6.766,1.292
		c1.598,0.851,2.753,2.414,2.753,4.487c0,2.04-1.189,3.944-3.773,4.896v0.068c2.618,0.714,4.556,2.686,4.556,5.644
		c0,2.074-0.952,3.705-2.38,4.861c-1.666,1.326-4.454,2.074-9.009,2.074c-2.549,0-4.454-0.17-5.609-0.34V87.916z M50.907,96.687h1.7
		c2.72,0,4.182-1.122,4.182-2.821c0-1.734-1.326-2.652-3.672-2.652c-1.122,0-1.768,0.068-2.209,0.137V96.687z M50.907,106.852
		c0.51,0.068,1.122,0.068,2.005,0.068c2.346,0,4.42-0.884,4.42-3.298c0-2.312-2.074-3.229-4.658-3.229h-1.768V106.852z"/>
	<path fill="#FFFFFF" d="M81.811,105.186c0,2.176,0.068,3.944,0.136,5.338h-4.488l-0.238-2.346H77.12
		c-0.646,1.02-2.21,2.72-5.202,2.72c-3.365,0-5.847-2.107-5.847-7.241v-9.757h5.202v8.94c0,2.414,0.782,3.876,2.583,3.876
		c1.428,0,2.244-0.986,2.583-1.802c0.136-0.306,0.17-0.714,0.17-1.122v-9.893h5.201V105.186z"/>
	<path fill="#FFFFFF" d="M102.074,86.386v19.174c0,1.87,0.068,3.842,0.137,4.964h-4.59l-0.238-2.447h-0.068
		c-1.054,1.869-3.06,2.821-5.202,2.821c-3.943,0-7.105-3.366-7.105-8.533c-0.034-5.609,3.467-8.839,7.445-8.839
		c2.04,0,3.637,0.714,4.385,1.869h0.068v-9.009H102.074z M96.907,100.937c0-0.272-0.034-0.646-0.068-0.918
		c-0.306-1.394-1.428-2.55-3.026-2.55c-2.346,0-3.569,2.107-3.569,4.726c0,2.821,1.394,4.59,3.536,4.59
		c1.496,0,2.686-1.021,2.992-2.482c0.102-0.374,0.136-0.748,0.136-1.189V100.937z"/>
	<path fill="#FFFFFF" d="M122.101,93.899c-0.067,1.054-0.136,2.447-0.136,4.929v9.281c0,3.196-0.646,5.813-2.516,7.479
		c-1.836,1.563-4.318,2.04-6.766,2.04c-2.176,0-4.488-0.442-5.983-1.292l1.021-3.909c1.053,0.611,2.889,1.258,4.826,1.258
		c2.448,0,4.318-1.326,4.318-4.386v-1.088h-0.068c-0.986,1.394-2.584,2.176-4.487,2.176c-4.114,0-7.037-3.332-7.037-8.125
		c0-5.338,3.468-8.737,7.547-8.737c2.278,0,3.706,0.985,4.556,2.346h0.068l0.17-1.972H122.101z M116.797,100.664
		c0-0.34-0.033-0.68-0.102-0.951c-0.374-1.36-1.359-2.278-2.788-2.278c-1.87,0-3.399,1.7-3.399,4.726c0,2.481,1.224,4.42,3.399,4.42
		c1.326,0,2.38-0.884,2.72-2.108c0.137-0.374,0.17-0.918,0.17-1.359V100.664z"/>
	<path fill="#FFFFFF" d="M130.092,103.86c0.17,2.142,2.277,3.161,4.691,3.161c1.768,0,3.195-0.237,4.59-0.68l0.68,3.502
		c-1.7,0.68-3.773,1.02-6.018,1.02c-5.644,0-8.873-3.264-8.873-8.465c0-4.216,2.617-8.873,8.396-8.873
		c5.372,0,7.412,4.182,7.412,8.295c0,0.884-0.103,1.666-0.17,2.04H130.092z M136.177,100.324c0-1.258-0.544-3.365-2.924-3.365
		c-2.176,0-3.06,1.972-3.195,3.365H136.177z"/>
	<path fill="#FFFFFF" d="M149.846,89.14v4.76h3.705v3.808h-3.705v6.018c0,2.005,0.476,2.923,2.039,2.923
		c0.646,0,1.156-0.067,1.53-0.136l0.034,3.91c-0.68,0.271-1.904,0.441-3.365,0.441c-1.666,0-3.061-0.578-3.876-1.428
		c-0.952-0.986-1.429-2.584-1.429-4.93v-6.799h-2.209v-3.808h2.209v-3.604L149.846,89.14z"/>
</g>
</svg>
