<?xml version="1.0" encoding="utf-8"?>
<!-- Generator: Adobe Illustrator 16.0.0, SVG Export Plug-In . SVG Version: 6.00 Build 0)  -->
<!DOCTYPE svg PUBLIC "-//W3C//DTD SVG 1.1//EN" "http://www.w3.org/Graphics/SVG/1.1/DTD/svg11.dtd">
<svg version="1.1" id="Layer_1" xmlns="http://www.w3.org/2000/svg" xmlns:xlink="http://www.w3.org/1999/xlink" x="0px" y="0px"
	 width="198px" height="198px" viewBox="0 0 198 198" enable-background="new 0 0 198 198" xml:space="preserve">
<circle fill="#016699" cx="99" cy="99" r="97.5"/>
<g enable-background="new    ">
	<path fill="#FFFFFF" d="M10.668,87.916c1.666-0.272,4.148-0.477,6.901-0.477c3.4,0,5.779,0.51,7.411,1.802
		c1.36,1.088,2.108,2.687,2.108,4.794c0,2.924-2.074,4.93-4.045,5.644v0.102c1.598,0.646,2.481,2.176,3.06,4.284
		c0.714,2.583,1.428,5.575,1.87,6.459h-5.303c-0.374-0.646-0.918-2.516-1.598-5.338c-0.612-2.855-1.598-3.637-3.706-3.671h-1.563
		v9.009h-5.134V87.916z M15.802,97.774h2.04c2.584,0,4.114-1.292,4.114-3.298c0-2.107-1.428-3.161-3.808-3.195
		c-1.258,0-1.972,0.103-2.346,0.17V97.774z"/>
	<path fill="#FFFFFF" d="M34.638,103.86c0.17,2.142,2.278,3.161,4.691,3.161c1.768,0,3.196-0.237,4.59-0.68l0.68,3.502
		c-1.7,0.68-3.773,1.02-6.017,1.02c-5.644,0-8.873-3.264-8.873-8.465c0-4.216,2.618-8.873,8.397-8.873
		c5.372,0,7.411,4.182,7.411,8.295c0,0.884-0.102,1.666-0.17,2.04H34.638z M40.723,100.324c0-1.258-0.544-3.365-2.924-3.365
		c-2.176,0-3.06,1.972-3.195,3.365H40.723z"/>
	<path fill="#FFFFFF" d="M48.578,106.002c0.952,0.578,2.924,1.258,4.454,1.258c1.564,0,2.21-0.544,2.21-1.394
		c0-0.851-0.51-1.258-2.448-1.904c-3.434-1.155-4.76-3.025-4.726-4.997c0-3.094,2.652-5.439,6.766-5.439
		c1.938,0,3.671,0.441,4.691,0.951l-0.918,3.57c-0.748-0.408-2.176-0.952-3.604-0.952c-1.258,0-1.972,0.51-1.972,1.36
		c0,0.781,0.646,1.189,2.686,1.903c3.162,1.088,4.487,2.686,4.521,5.134c0,3.094-2.448,5.371-7.208,5.371
		c-2.176,0-4.113-0.476-5.371-1.156L48.578,106.002z"/>
	<path fill="#FFFFFF" d="M69.147,89.14v4.76h3.706v3.808h-3.706v6.018c0,2.005,0.476,2.923,2.04,2.923
		c0.646,0,1.156-0.067,1.53-0.136l0.034,3.91c-0.68,0.271-1.904,0.441-3.366,0.441c-1.666,0-3.06-0.578-3.875-1.428
		c-0.952-0.986-1.428-2.584-1.428-4.93v-6.799h-2.209v-3.808h2.209v-3.604L69.147,89.14z"/>
	<path fill="#FFFFFF" d="M85.296,110.523l-0.306-1.666h-0.102c-1.088,1.326-2.788,2.04-4.759,2.04c-3.366,0-5.372-2.448-5.372-5.1
		c0-4.317,3.875-6.392,9.757-6.357v-0.238c0-0.884-0.476-2.142-3.026-2.142c-1.7,0-3.501,0.578-4.589,1.258l-0.952-3.331
		c1.156-0.646,3.434-1.462,6.459-1.462c5.542,0,7.309,3.264,7.309,7.173v5.779c0,1.599,0.068,3.128,0.238,4.046H85.296z
		 M84.685,102.67c-2.72-0.033-4.828,0.612-4.828,2.618c0,1.326,0.884,1.972,2.04,1.972c1.292,0,2.346-0.85,2.686-1.904
		c0.068-0.271,0.102-0.577,0.102-0.884V102.67z"/>
	<path fill="#FFFFFF" d="M109.47,105.186c0,2.176,0.068,3.944,0.136,5.338h-4.487l-0.237-2.346h-0.103
		c-0.646,1.02-2.21,2.72-5.202,2.72c-3.365,0-5.847-2.107-5.847-7.241v-9.757h5.201v8.94c0,2.414,0.782,3.876,2.584,3.876
		c1.428,0,2.243-0.986,2.584-1.802c0.136-0.306,0.17-0.714,0.17-1.122v-9.893h5.201V105.186z"/>
	<path fill="#FFFFFF" d="M113.619,99.373c0-2.448-0.068-4.046-0.136-5.474h4.453l0.171,3.06h0.135
		c0.851-2.414,2.891-3.434,4.488-3.434c0.476,0,0.714,0,1.088,0.067v4.862c-0.374-0.068-0.816-0.137-1.395-0.137
		c-1.903,0-3.195,1.021-3.535,2.618c-0.068,0.34-0.102,0.748-0.102,1.155v8.432h-5.168V99.373z"/>
	<path fill="#FFFFFF" d="M135.616,110.523l-0.306-1.666h-0.103c-1.088,1.326-2.788,2.04-4.759,2.04c-3.366,0-5.372-2.448-5.372-5.1
		c0-4.317,3.876-6.392,9.757-6.357v-0.238c0-0.884-0.476-2.142-3.025-2.142c-1.699,0-3.502,0.578-4.59,1.258l-0.951-3.331
		c1.155-0.646,3.434-1.462,6.459-1.462c5.541,0,7.309,3.264,7.309,7.173v5.779c0,1.599,0.068,3.128,0.238,4.046H135.616z
		 M135.004,102.67c-2.719-0.033-4.827,0.612-4.827,2.618c0,1.326,0.884,1.972,2.04,1.972c1.291,0,2.346-0.85,2.686-1.904
		c0.068-0.271,0.102-0.577,0.102-0.884V102.67z"/>
	<path fill="#FFFFFF" d="M144.117,99.202c0-2.073-0.068-3.841-0.136-5.303h4.487l0.238,2.277h0.102
		c0.68-1.054,2.38-2.651,5.134-2.651c3.399,0,5.949,2.243,5.949,7.139v9.859h-5.167v-9.213c0-2.142-0.748-3.604-2.618-3.604
		c-1.428,0-2.278,0.985-2.618,1.938c-0.136,0.306-0.203,0.816-0.203,1.292v9.587h-5.168V99.202z"/>
	<path fill="#FFFFFF" d="M169.617,89.14v4.76h3.705v3.808h-3.705v6.018c0,2.005,0.476,2.923,2.039,2.923
		c0.646,0,1.156-0.067,1.53-0.136l0.034,3.91c-0.68,0.271-1.904,0.441-3.365,0.441c-1.666,0-3.061-0.578-3.876-1.428
		c-0.952-0.986-1.429-2.584-1.429-4.93v-6.799h-2.209v-3.808h2.209v-3.604L169.617,89.14z"/>
	<path fill="#FFFFFF" d="M176.281,106.002c0.951,0.578,2.924,1.258,4.453,1.258c1.564,0,2.21-0.544,2.21-1.394
		c0-0.851-0.51-1.258-2.448-1.904c-3.434-1.155-4.759-3.025-4.725-4.997c0-3.094,2.651-5.439,6.765-5.439
		c1.938,0,3.672,0.441,4.692,0.951l-0.918,3.57c-0.748-0.408-2.176-0.952-3.604-0.952c-1.259,0-1.973,0.51-1.973,1.36
		c0,0.781,0.646,1.189,2.686,1.903c3.162,1.088,4.488,2.686,4.521,5.134c0,3.094-2.447,5.371-7.207,5.371
		c-2.176,0-4.113-0.476-5.371-1.156L176.281,106.002z"/>
</g>
</svg>
