<?xml version="1.0" encoding="utf-8"?>
<!-- Generator: Adobe Illustrator 16.0.0, SVG Export Plug-In . SVG Version: 6.00 Build 0)  -->
<!DOCTYPE svg PUBLIC "-//W3C//DTD SVG 1.1//EN" "http://www.w3.org/Graphics/SVG/1.1/DTD/svg11.dtd">
<svg version="1.1" id="Layer_1" xmlns="http://www.w3.org/2000/svg" xmlns:xlink="http://www.w3.org/1999/xlink" x="0px" y="0px"
	 width="198px" height="198px" viewBox="0 0 198 198" enable-background="new 0 0 198 198" xml:space="preserve">
<circle fill="#016699" cx="99" cy="99" r="97.5"/>
<g enable-background="new    ">
	<path fill="#FFFFFF" d="M41.338,105.186c1.394,0.715,3.536,1.429,5.746,1.429c2.38,0,3.638-0.986,3.638-2.482
		c0-1.428-1.088-2.243-3.842-3.229c-3.808-1.326-6.289-3.434-6.289-6.766c0-3.909,3.264-6.901,8.669-6.901
		c2.584,0,4.487,0.544,5.848,1.156l-1.156,4.182c-0.918-0.442-2.55-1.088-4.793-1.088s-3.332,1.02-3.332,2.21
		c0,1.462,1.292,2.107,4.25,3.229c4.045,1.496,5.949,3.604,5.949,6.833c0,3.842-2.958,7.105-9.247,7.105
		c-2.618,0-5.201-0.68-6.493-1.394L41.338,105.186z"/>
	<path fill="#FFFFFF" d="M63.573,103.86c0.17,2.142,2.278,3.161,4.691,3.161c1.768,0,3.196-0.237,4.59-0.68l0.68,3.502
		c-1.7,0.68-3.773,1.02-6.017,1.02c-5.644,0-8.873-3.264-8.873-8.465c0-4.216,2.618-8.873,8.397-8.873
		c5.372,0,7.411,4.182,7.411,8.295c0,0.884-0.102,1.666-0.17,2.04H63.573z M69.658,100.324c0-1.258-0.544-3.365-2.924-3.365
		c-2.176,0-3.06,1.972-3.195,3.365H69.658z"/>
	<path fill="#FFFFFF" d="M83.327,89.14v4.76h3.706v3.808h-3.706v6.018c0,2.005,0.476,2.923,2.04,2.923
		c0.646,0,1.156-0.067,1.53-0.136l0.034,3.91c-0.68,0.271-1.904,0.441-3.366,0.441c-1.666,0-3.06-0.578-3.876-1.428
		c-0.952-0.986-1.428-2.584-1.428-4.93v-6.799h-2.209v-3.808h2.209v-3.604L83.327,89.14z"/>
	<path fill="#FFFFFF" d="M95.804,89.14v4.76h3.706v3.808h-3.706v6.018c0,2.005,0.476,2.923,2.04,2.923
		c0.646,0,1.156-0.067,1.53-0.136l0.034,3.91c-0.68,0.271-1.904,0.441-3.366,0.441c-1.666,0-3.06-0.578-3.876-1.428
		c-0.952-0.986-1.428-2.584-1.428-4.93v-6.799h-2.209v-3.808h2.209v-3.604L95.804,89.14z"/>
	<path fill="#FFFFFF" d="M107.84,89.275c0,1.428-1.088,2.584-2.787,2.584c-1.632,0-2.72-1.156-2.686-2.584
		c-0.034-1.496,1.054-2.617,2.72-2.617C106.752,86.658,107.807,87.779,107.84,89.275z M102.503,110.523V93.899h5.167v16.624H102.503
		z"/>
	<path fill="#FFFFFF" d="M111.818,99.202c0-2.073-0.068-3.841-0.136-5.303h4.487l0.238,2.277h0.102
		c0.68-1.054,2.38-2.651,5.134-2.651c3.399,0,5.949,2.243,5.949,7.139v9.859h-5.167v-9.213c0-2.142-0.748-3.604-2.618-3.604
		c-1.428,0-2.278,0.985-2.618,1.938c-0.136,0.306-0.203,0.816-0.203,1.292v9.587h-5.168V99.202z"/>
	<path fill="#FFFFFF" d="M147.619,93.899c-0.068,1.054-0.137,2.447-0.137,4.929v9.281c0,3.196-0.646,5.813-2.516,7.479
		c-1.836,1.563-4.317,2.04-6.766,2.04c-2.176,0-4.487-0.442-5.982-1.292l1.02-3.909c1.054,0.611,2.89,1.258,4.827,1.258
		c2.448,0,4.317-1.326,4.317-4.386v-1.088h-0.068c-0.985,1.394-2.583,2.176-4.486,2.176c-4.114,0-7.037-3.332-7.037-8.125
		c0-5.338,3.467-8.737,7.547-8.737c2.277,0,3.705,0.985,4.555,2.346h0.068l0.17-1.972H147.619z M142.314,100.664
		c0-0.34-0.033-0.68-0.102-0.951c-0.373-1.36-1.359-2.278-2.787-2.278c-1.87,0-3.4,1.7-3.4,4.726c0,2.481,1.225,4.42,3.4,4.42
		c1.326,0,2.379-0.884,2.719-2.108c0.137-0.374,0.17-0.918,0.17-1.359V100.664z"/>
	<path fill="#FFFFFF" d="M151.598,106.002c0.952,0.578,2.924,1.258,4.453,1.258c1.564,0,2.211-0.544,2.211-1.394
		c0-0.851-0.51-1.258-2.448-1.904c-3.434-1.155-4.759-3.025-4.726-4.997c0-3.094,2.652-5.439,6.766-5.439
		c1.938,0,3.672,0.441,4.691,0.951l-0.918,3.57c-0.748-0.408-2.176-0.952-3.604-0.952c-1.258,0-1.973,0.51-1.973,1.36
		c0,0.781,0.646,1.189,2.687,1.903c3.161,1.088,4.487,2.686,4.521,5.134c0,3.094-2.448,5.371-7.208,5.371
		c-2.176,0-4.113-0.476-5.371-1.156L151.598,106.002z"/>
</g>
</svg>
