<?xml version="1.0" encoding="utf-8"?>
<!-- Generator: Adobe Illustrator 16.0.0, SVG Export Plug-In . SVG Version: 6.00 Build 0)  -->
<!DOCTYPE svg PUBLIC "-//W3C//DTD SVG 1.1//EN" "http://www.w3.org/Graphics/SVG/1.1/DTD/svg11.dtd">
<svg version="1.1" id="Layer_1" xmlns="http://www.w3.org/2000/svg" xmlns:xlink="http://www.w3.org/1999/xlink" x="0px" y="0px"
	 width="198px" height="198px" viewBox="0 0 198 198" enable-background="new 0 0 198 198" xml:space="preserve">
<circle fill="#016699" cx="99" cy="99" r="97.5"/>
<g>
	<path fill="#FFFFFF" d="M50.499,87.61v13.191c0,3.943,1.496,5.949,4.148,5.949c2.72,0,4.215-1.904,4.215-5.949V87.61h5.167v12.851
		c0,7.07-3.57,10.437-9.553,10.437c-5.779,0-9.179-3.196-9.179-10.505V87.61H50.499z"/>
	<path fill="#FFFFFF" d="M68.349,99.475c0-2.176-0.068-4.046-0.136-5.576h4.487l0.238,2.312h0.068
		c1.224-1.768,3.127-2.686,5.542-2.686c3.638,0,6.901,3.162,6.901,8.465c0,6.051-3.842,8.907-7.547,8.907
		c-2.006,0-3.57-0.815-4.318-1.903h-0.068v8.261h-5.167V99.475z M73.517,103.385c0,0.407,0.034,0.781,0.102,1.088
		c0.34,1.393,1.53,2.447,3.026,2.447c2.244,0,3.569-1.87,3.569-4.691c0-2.652-1.19-4.658-3.501-4.658
		c-1.462,0-2.754,1.088-3.094,2.618c-0.068,0.272-0.102,0.612-0.102,0.918V103.385z"/>
	<path fill="#FFFFFF" d="M104.896,86.386v19.175c0,1.869,0.068,3.841,0.137,4.963h-4.59l-0.238-2.447h-0.068
		c-1.053,1.869-3.059,2.821-5.201,2.821c-3.943,0-7.105-3.366-7.105-8.533c-0.034-5.609,3.467-8.839,7.445-8.839
		c2.04,0,3.638,0.714,4.386,1.87h0.068v-9.009H104.896z M99.729,100.937c0-0.272-0.034-0.646-0.068-0.918
		c-0.306-1.394-1.428-2.55-3.025-2.55c-2.346,0-3.57,2.108-3.57,4.726c0,2.821,1.394,4.589,3.536,4.589
		c1.496,0,2.686-1.02,2.992-2.48c0.102-0.375,0.136-0.748,0.136-1.19V100.937z"/>
	<path fill="#FFFFFF" d="M118.498,110.523l-0.307-1.666h-0.102c-1.088,1.326-2.787,2.04-4.76,2.04c-3.365,0-5.371-2.448-5.371-5.1
		c0-4.317,3.875-6.391,9.758-6.357v-0.238c0-0.884-0.477-2.142-3.027-2.142c-1.699,0-3.5,0.578-4.588,1.258l-0.953-3.332
		c1.156-0.646,3.434-1.461,6.459-1.461c5.543,0,7.311,3.264,7.311,7.173v5.78c0,1.598,0.068,3.127,0.238,4.045H118.498z
		 M117.887,102.67c-2.721-0.033-4.828,0.612-4.828,2.618c0,1.325,0.885,1.972,2.039,1.972c1.293,0,2.346-0.85,2.686-1.904
		c0.068-0.271,0.104-0.578,0.104-0.883V102.67z"/>
	<path fill="#FFFFFF" d="M132.506,89.14v4.759h3.705v3.808h-3.705v6.018c0,2.006,0.477,2.924,2.039,2.924
		c0.646,0,1.156-0.068,1.531-0.137l0.033,3.91c-0.68,0.271-1.904,0.441-3.365,0.441c-1.666,0-3.061-0.578-3.875-1.428
		c-0.953-0.986-1.428-2.584-1.428-4.93v-6.799h-2.211v-3.808h2.211v-3.604L132.506,89.14z"/>
	<path fill="#FFFFFF" d="M143.012,103.86c0.17,2.142,2.277,3.161,4.691,3.161c1.768,0,3.195-0.238,4.59-0.68l0.68,3.502
		c-1.699,0.68-3.773,1.02-6.018,1.02c-5.643,0-8.873-3.264-8.873-8.465c0-4.216,2.617-8.873,8.396-8.873
		c5.373,0,7.412,4.181,7.412,8.295c0,0.884-0.102,1.666-0.17,2.04H143.012z M149.098,100.324c0-1.258-0.545-3.365-2.924-3.365
		c-2.176,0-3.061,1.972-3.195,3.365H149.098z"/>
</g>
</svg>
