<?xml version="1.0" encoding="utf-8"?>
<!-- Generator: Adobe Illustrator 16.0.0, SVG Export Plug-In . SVG Version: 6.00 Build 0)  -->
<!DOCTYPE svg PUBLIC "-//W3C//DTD SVG 1.1//EN" "http://www.w3.org/Graphics/SVG/1.1/DTD/svg11.dtd">
<svg version="1.1" id="Layer_1" xmlns="http://www.w3.org/2000/svg" xmlns:xlink="http://www.w3.org/1999/xlink" x="0px" y="0px"
	 width="198px" height="198px" viewBox="0 0 198 198" enable-background="new 0 0 198 198" xml:space="preserve">
<circle fill="#016699" cx="99" cy="99" r="97.5"/>
<g>
	<path fill="#FFFFFF" d="M59.595,87.916c1.666-0.272,4.148-0.476,6.901-0.476c3.4,0,5.779,0.51,7.411,1.802
		c1.36,1.088,2.108,2.686,2.108,4.793c0,2.924-2.074,4.93-4.045,5.644v0.102c1.598,0.646,2.481,2.176,3.06,4.284
		c0.714,2.584,1.428,5.575,1.87,6.459h-5.303c-0.374-0.646-0.918-2.516-1.598-5.338c-0.612-2.855-1.598-3.637-3.706-3.672h-1.563
		v9.01h-5.134V87.916z M64.729,97.775h2.04c2.584,0,4.114-1.292,4.114-3.298c0-2.108-1.428-3.162-3.808-3.196
		c-1.258,0-1.972,0.102-2.346,0.17V97.775z"/>
	<path fill="#FFFFFF" d="M83.564,103.86c0.17,2.142,2.278,3.161,4.691,3.161c1.768,0,3.196-0.238,4.59-0.68l0.68,3.502
		c-1.7,0.68-3.773,1.02-6.017,1.02c-5.644,0-8.873-3.264-8.873-8.465c0-4.216,2.618-8.873,8.397-8.873
		c5.372,0,7.411,4.181,7.411,8.295c0,0.884-0.102,1.666-0.17,2.04H83.564z M89.649,100.324c0-1.258-0.544-3.365-2.924-3.365
		c-2.176,0-3.06,1.972-3.195,3.365H89.649z"/>
	<path fill="#FFFFFF" d="M97.504,106.002c0.952,0.578,2.923,1.258,4.455,1.258c1.563,0,2.209-0.544,2.209-1.395
		c0-0.85-0.51-1.258-2.447-1.903c-3.434-1.155-4.76-3.025-4.726-4.997c0-3.094,2.652-5.439,6.765-5.439
		c1.938,0,3.672,0.442,4.691,0.952l-0.918,3.57c-0.748-0.408-2.176-0.952-3.604-0.952c-1.258,0-1.971,0.51-1.971,1.36
		c0,0.782,0.645,1.19,2.686,1.904c3.16,1.088,4.486,2.686,4.521,5.134c0,3.094-2.449,5.371-7.207,5.371
		c-2.177,0-4.114-0.476-5.372-1.156L97.504,106.002z"/>
	<path fill="#FFFFFF" d="M116.271,103.86c0.17,2.142,2.277,3.161,4.691,3.161c1.768,0,3.195-0.238,4.59-0.68l0.68,3.502
		c-1.699,0.68-3.773,1.02-6.018,1.02c-5.643,0-8.873-3.264-8.873-8.465c0-4.216,2.617-8.873,8.396-8.873
		c5.373,0,7.412,4.181,7.412,8.295c0,0.884-0.102,1.666-0.17,2.04H116.271z M122.357,100.324c0-1.258-0.545-3.365-2.924-3.365
		c-2.176,0-3.061,1.972-3.195,3.365H122.357z"/>
	<path fill="#FFFFFF" d="M136.025,89.14v4.759h3.705v3.808h-3.705v6.018c0,2.006,0.477,2.924,2.039,2.924
		c0.646,0,1.156-0.068,1.531-0.137l0.033,3.91c-0.68,0.271-1.904,0.441-3.365,0.441c-1.666,0-3.061-0.578-3.875-1.428
		c-0.953-0.986-1.428-2.584-1.428-4.93v-6.799h-2.211v-3.808h2.211v-3.604L136.025,89.14z"/>
</g>
</svg>
