<?xml version="1.0" encoding="utf-8"?>
<!-- Generator: Adobe Illustrator 16.0.0, SVG Export Plug-In . SVG Version: 6.00 Build 0)  -->
<!DOCTYPE svg PUBLIC "-//W3C//DTD SVG 1.1//EN" "http://www.w3.org/Graphics/SVG/1.1/DTD/svg11.dtd">
<svg version="1.1" id="Layer_1" xmlns="http://www.w3.org/2000/svg" xmlns:xlink="http://www.w3.org/1999/xlink" x="0px" y="0px"
	 width="198px" height="198px" viewBox="0 0 198 198" enable-background="new 0 0 198 198" xml:space="preserve">
<circle fill="#016699" cx="99" cy="99" r="97.5"/>
<g>
	<path fill="#FFFFFF" d="M31.986,87.61h14.007v4.25h-8.805v5.235h8.227v4.216h-8.227v9.213h-5.202V87.61z"/>
	<path fill="#FFFFFF" d="M57.86,110.523l-0.306-1.666h-0.102c-1.088,1.326-2.788,2.04-4.759,2.04c-3.366,0-5.372-2.448-5.372-5.1
		c0-4.317,3.875-6.391,9.757-6.357v-0.238c0-0.884-0.476-2.142-3.025-2.142c-1.7,0-3.502,0.578-4.59,1.258l-0.952-3.332
		c1.156-0.646,3.434-1.461,6.459-1.461c5.542,0,7.309,3.264,7.309,7.173v5.78c0,1.598,0.068,3.127,0.238,4.045H57.86z
		 M57.248,102.67c-2.72-0.033-4.828,0.612-4.828,2.618c0,1.325,0.884,1.972,2.04,1.972c1.292,0,2.346-0.85,2.686-1.904
		c0.068-0.271,0.102-0.578,0.102-0.883V102.67z"/>
	<path fill="#FFFFFF" d="M69.794,93.899l2.244,7.717c0.408,1.394,0.714,2.72,0.952,4.046h0.102c0.272-1.359,0.544-2.618,0.918-4.046
		l2.142-7.717h5.439l-6.188,16.625h-5.167l-6.051-16.625H69.794z"/>
	<path fill="#FFFFFF" d="M99.883,102.024c0,6.085-4.317,8.873-8.771,8.873c-4.862,0-8.601-3.196-8.601-8.567
		s3.536-8.805,8.873-8.805C96.484,93.525,99.883,97.027,99.883,102.024z M87.849,102.194c0,2.855,1.19,4.997,3.399,4.997
		c2.006,0,3.298-2.006,3.298-4.997c0-2.482-0.952-4.998-3.298-4.998C88.767,97.197,87.849,99.747,87.849,102.194z"/>
	<path fill="#FFFFFF" d="M103.082,99.373c0-2.448-0.068-4.045-0.137-5.474h4.453l0.17,3.06h0.137
		c0.85-2.414,2.889-3.434,4.486-3.434c0.477,0,0.715,0,1.088,0.068v4.861c-0.373-0.068-0.814-0.136-1.393-0.136
		c-1.904,0-3.195,1.02-3.537,2.618c-0.066,0.34-0.102,0.748-0.102,1.155v8.432h-5.166V99.373z"/>
	<path fill="#FFFFFF" d="M121.338,89.275c0,1.428-1.088,2.584-2.789,2.584c-1.631,0-2.719-1.156-2.686-2.584
		c-0.033-1.496,1.055-2.618,2.721-2.618S121.303,87.78,121.338,89.275z M116,110.523V93.899h5.168v16.625H116z"/>
	<path fill="#FFFFFF" d="M131.096,89.14v4.759h3.705v3.808h-3.705v6.018c0,2.006,0.475,2.924,2.039,2.924
		c0.646,0,1.156-0.068,1.529-0.137l0.035,3.91c-0.68,0.271-1.904,0.441-3.367,0.441c-1.664,0-3.059-0.578-3.875-1.428
		c-0.951-0.986-1.428-2.584-1.428-4.93v-6.799h-2.209v-3.808h2.209v-3.604L131.096,89.14z"/>
	<path fill="#FFFFFF" d="M141.602,103.86c0.17,2.142,2.277,3.161,4.691,3.161c1.768,0,3.195-0.238,4.59-0.68l0.68,3.502
		c-1.699,0.68-3.773,1.02-6.018,1.02c-5.643,0-8.873-3.264-8.873-8.465c0-4.216,2.617-8.873,8.396-8.873
		c5.373,0,7.412,4.181,7.412,8.295c0,0.884-0.102,1.666-0.17,2.04H141.602z M147.688,100.324c0-1.258-0.545-3.365-2.924-3.365
		c-2.176,0-3.061,1.972-3.195,3.365H147.688z"/>
	<path fill="#FFFFFF" d="M155.543,106.002c0.951,0.578,2.924,1.258,4.453,1.258c1.564,0,2.209-0.544,2.209-1.395
		c0-0.85-0.51-1.258-2.447-1.903c-3.434-1.155-4.76-3.025-4.725-4.997c0-3.094,2.65-5.439,6.764-5.439
		c1.939,0,3.672,0.442,4.691,0.952l-0.918,3.57c-0.746-0.408-2.176-0.952-3.604-0.952c-1.258,0-1.971,0.51-1.971,1.36
		c0,0.782,0.646,1.19,2.686,1.904c3.162,1.088,4.488,2.686,4.521,5.134c0,3.094-2.447,5.371-7.207,5.371
		c-2.176,0-4.113-0.476-5.371-1.156L155.543,106.002z"/>
</g>
</svg>
