<?xml version="1.0" encoding="utf-8"?>
<!-- Generator: Adobe Illustrator 16.0.0, SVG Export Plug-In . SVG Version: 6.00 Build 0)  -->
<!DOCTYPE svg PUBLIC "-//W3C//DTD SVG 1.1//EN" "http://www.w3.org/Graphics/SVG/1.1/DTD/svg11.dtd">
<svg version="1.1" id="Capa_1" xmlns="http://www.w3.org/2000/svg" xmlns:xlink="http://www.w3.org/1999/xlink" x="0px" y="0px"
	 width="200px" height="200px" viewBox="0 0 200 200" enable-background="new 0 0 200 200" xml:space="preserve">
<g>
	<path fill="#006699" d="M190.845,114.958L180.031,97.9l6.415-19.145c0.868-2.613-0.214-5.483-2.601-6.849l-17.498-10.089
		l-3.219-19.935c-0.447-2.72-2.74-4.748-5.488-4.863l-20.183-0.79l-12.112-16.163c-1.651-2.207-4.642-2.939-7.111-1.751L100,26.988
		l-18.24-8.679c-2.478-1.174-5.453-0.441-7.112,1.758L62.537,36.229l-20.183,0.79c-2.742,0.106-5.041,2.136-5.482,4.855
		L33.652,61.81L16.153,71.899c-2.385,1.367-3.474,4.235-2.606,6.849l6.415,19.145L9.154,114.959
		c-1.474,2.328-1.096,5.367,0.89,7.276l14.575,13.976l-1.638,20.12c-0.221,2.755,1.517,5.268,4.158,6.038l19.4,5.588l7.896,18.588
		c1.081,2.528,3.794,3.994,6.486,3.411l19.793-4.059l15.62,12.792C97.395,199.552,98.699,200,100,200
		c1.302,0,2.599-0.448,3.667-1.311l15.622-12.792l19.793,4.059c2.684,0.569,5.409-0.877,6.483-3.411l7.897-18.588l19.399-5.588
		c2.642-0.762,4.381-3.283,4.159-6.038l-1.639-20.12l14.573-13.976C191.941,120.325,192.319,117.286,190.845,114.958z
		 M141.842,87.114l-40.518,60.7c-1.531,2.264-3.902,3.781-6.259,3.781c-2.35,0-4.977-1.318-6.65-2.997L58.67,118.376
		c-2.029-2.065-2.029-5.411,0-7.476l7.34-7.476c2.028-2.036,5.326-2.036,7.339,0l19.359,19.665l31.924-47.831
		c1.602-2.413,4.855-3.026,7.22-1.395l8.606,5.915C142.833,81.417,143.444,84.714,141.842,87.114z"/>
</g>
</svg>
