<?xml version="1.0" encoding="utf-8"?>
<!-- Generator: Adobe Illustrator 16.0.0, SVG Export Plug-In . SVG Version: 6.00 Build 0)  -->
<!DOCTYPE svg PUBLIC "-//W3C//DTD SVG 1.1//EN" "http://www.w3.org/Graphics/SVG/1.1/DTD/svg11.dtd">
<svg version="1.1" id="Capa_1" xmlns="http://www.w3.org/2000/svg" xmlns:xlink="http://www.w3.org/1999/xlink" x="0px" y="0px"
	 width="200px" height="200px" viewBox="156 156 200 200" enable-background="new 156 156 200 200" xml:space="preserve">
<g>
	<g>
		<g>
			<path fill="#006699" d="M247.573,254.639h-58.227c-2.337,0-4.394,1.545-5.042,3.791l-11.173,38.688l78.338,8.571l6.147-29.422
				C253.791,269.437,250.271,262.122,247.573,254.639z"/>
			<path fill="#006699" d="M320.739,313.269l23.526,2.574l-7.024-24.324c-0.944,1.388-1.883,2.741-2.808,4.042
				C329.681,302.253,324.932,308.26,320.739,313.269z"/>
			<path fill="#006699" d="M269.72,295.325l-2.525,12.085l12.717,1.39c-3.193-3.969-6.592-8.404-9.996-13.197
				C269.851,295.512,269.785,295.417,269.72,295.325z"/>
			<path fill="#006699" d="M158.063,349.296c-0.458,1.585-0.144,3.291,0.848,4.61c0.991,1.318,2.545,2.094,4.194,2.094h77.853
				l7.276-34.825l-79.537-8.702L158.063,349.296z"/>
			<path fill="#006699" d="M348.989,332.198l-85.029-9.305l-6.918,33.105h91.843c0.004,0,0.008,0,0.011,0
				c2.898,0,5.248-2.351,5.248-5.248c0-0.629-0.11-1.231-0.313-1.788L348.989,332.198z"/>
			<path fill="#006699" d="M299.994,319.939c0.558,0.598,1.344,0.937,2.165,0.937s1.604-0.339,2.169-0.937
				c4.781-5.087,14.225-15.614,23.688-28.937c11.921-16.783,26.127-41.391,26.127-63.321c0-28.665-23.319-51.982-51.984-51.982
				c-28.662,0-51.982,23.318-51.982,51.982c0,21.945,14.225,46.569,26.158,63.363C285.795,304.367,295.217,314.863,299.994,319.939z
				 M302.159,195.259c17.503,0,31.741,14.242,31.741,31.745c0,17.496-14.239,31.744-31.741,31.744
				c-17.5,0-31.74-14.249-31.74-31.744C270.42,209.501,284.659,195.259,302.159,195.259z"/>
		</g>
	</g>
</g>
</svg>
