<?xml version="1.0" encoding="utf-8"?>
<!-- Generator: Adobe Illustrator 16.0.0, SVG Export Plug-In . SVG Version: 6.00 Build 0)  -->
<!DOCTYPE svg PUBLIC "-//W3C//DTD SVG 1.1//EN" "http://www.w3.org/Graphics/SVG/1.1/DTD/svg11.dtd">
<svg version="1.1" id="Capa_1" xmlns="http://www.w3.org/2000/svg" xmlns:xlink="http://www.w3.org/1999/xlink" x="0px" y="0px"
	 width="400px" height="400px" viewBox="56 56 400 400" enable-background="new 56 56 400 400" xml:space="preserve">
<g>
	<path fill="#FFCC00" stroke="#016699" stroke-miterlimit="10" d="M256,452c108.248,0,196-87.752,196-196S364.248,60,256,60
		S60,147.752,60,256S147.752,452,256,452z M256,96.751c87.95,0,159.25,71.299,159.25,159.251c0,87.95-71.298,159.251-159.25,159.251
		s-159.251-71.3-159.251-159.251C96.751,168.048,168.048,96.751,256,96.751z M256,289.213c44.388,0,86.604-11.793,122.5-32.509
		C372.922,325.012,319.88,378.5,256,378.5s-116.918-53.546-122.5-121.852C169.396,277.361,211.612,289.213,256,289.213z M158,194.75
		c0,20.296,10.969,36.752,24.5,36.752S207,215.048,207,194.75c0-20.296-10.969-36.75-24.5-36.75S158,174.454,158,194.75z
		 M305,194.75c0,20.296,10.97,36.752,24.5,36.752S354,215.048,354,194.75c0-20.296-10.97-36.75-24.5-36.75S305,174.454,305,194.75z"
		/>
</g>
</svg>
