<?xml version="1.0" encoding="utf-8"?>
<!-- Generator: Adobe Illustrator 16.0.0, SVG Export Plug-In . SVG Version: 6.00 Build 0)  -->
<!DOCTYPE svg PUBLIC "-//W3C//DTD SVG 1.1//EN" "http://www.w3.org/Graphics/SVG/1.1/DTD/svg11.dtd">
<svg version="1.1" id="Capa_1" xmlns="http://www.w3.org/2000/svg" xmlns:xlink="http://www.w3.org/1999/xlink" x="0px" y="0px"
	 width="400px" height="400px" viewBox="56 55.999 400 400" enable-background="new 56 55.999 400 400" xml:space="preserve">
<g>
	<g id="Layer_5_58_">
		<g>
			<g>
				<path fill="#FFCC00" stroke="#016699" stroke-miterlimit="10" d="M352.712,180.971c-11.646-4.669-15.01-7.491-15.01-12.589
					c0-4.078,3.09-8.847,11.801-8.847c7.707,0,13.616,3.037,13.669,3.065c0.62,0.332,1.318,0.508,2.009,0.508
					c1.687,0,3.177-1.021,3.795-2.6l2.116-5.41c0.737-1.973-0.381-3.69-1.806-4.306c-4.746-2.065-14.018-3.663-14.111-3.682
					c-0.149-0.026-0.668-0.137-0.668-0.744l-0.03-7.85c0-2.363-1.975-4.286-4.396-4.286h-3.799c-2.42,0-4.392,1.923-4.392,4.289
					l0.009,8.251c0,0.632-0.687,0.909-0.936,0.967c-11.704,2.786-19.018,11.361-19.018,22.174c0,13.481,11.144,19.574,23.177,24.146
					c9.619,3.776,13.542,7.605,13.542,13.222c0,6.112-5.558,10.381-13.519,10.381c-6.798,0-15.998-4.31-16.09-4.354
					c-0.592-0.279-1.213-0.419-1.854-0.419c-1.751,0-3.274,1.06-3.885,2.699l-2.021,5.472c-0.719,2.043,0.387,3.702,1.804,4.44
					c5.648,2.942,16.584,4.668,17.071,4.744c0.131,0.019,0.796,0.253,0.796,0.861v8.216c0,2.364,1.975,4.287,4.398,4.287h3.924
					c2.425,0,4.398-1.923,4.398-4.287v-8.647c0-0.809,0.597-0.88,0.719-0.909c12.47-2.8,20.148-11.923,20.148-23.378
					C374.552,194.619,368.019,187.018,352.712,180.971z"/>
				<path fill="#FFCC00" stroke="#016699" stroke-miterlimit="10" d="M347.809,85.863c-56.917,0-103.054,46.14-103.054,103.054
					s46.137,103.055,103.054,103.055c56.914,0,103.053-46.141,103.053-103.055C450.862,132.003,404.725,85.863,347.809,85.863z
					 M347.809,268.091c-43.728,0-79.171-35.447-79.171-79.171c0-43.724,35.443-79.172,79.171-79.172
					c43.726,0,79.166,35.448,79.166,79.172C426.975,232.644,391.534,268.091,347.809,268.091z"/>
			</g>
			<g>
				<path fill="#FFCC00" stroke="#016699" stroke-miterlimit="10" d="M429.923,341.912c-21.915,12.095-52.057,23.277-82.114,27.993
					c-26.74,4.191-77.053-5.922-77.053-17.867c0-4.525,44.124,11.154,70.815,4.034c20.469-5.462,17.563-24.608,6.43-27.134
					c-11.067-2.512-75.91-26.267-103.608-27.086c-13.046-0.385-45.26,4.536-60.845,7.076c-5.34,0.869-8.688,0.771-9.021,5.883
					c-1.552,23.748-4.607,72.313-6.275,97.68c-0.035,0.537,0.709,7.743,6.657,2.671c6.512-5.551,15.641-11.705,24.088-9.789
					c13.25,3.006,127.885,24.007,143.698,20.332c22.619-5.257,86.651-43.206,98.931-55.002
					C460.654,352.418,445.861,333.114,429.923,341.912z"/>
				<path fill="#FFCC00" stroke="#016699" stroke-miterlimit="10" d="M142.891,308.004l-60.053-2.961
					c-4.637-0.227-9.372,3.268-10.525,7.765l-10.918,99.138c-1.152,4.498,1.702,8.326,6.34,8.506l66.555-0.008
					c4.64,0.179,8.723-3.461,9.08-8.09l7.308-95.519C151.031,312.206,147.527,308.23,142.891,308.004z M107.537,407.308
					c-9.171,0-16.605-7.435-16.605-16.604c0-9.173,7.435-16.604,16.605-16.604c9.17,0,16.604,7.434,16.604,16.604
					S116.707,407.308,107.537,407.308z"/>
			</g>
		</g>
	</g>
</g>
</svg>
