<?xml version="1.0" encoding="utf-8"?>
<!-- Generator: Adobe Illustrator 16.0.0, SVG Export Plug-In . SVG Version: 6.00 Build 0)  -->
<!DOCTYPE svg PUBLIC "-//W3C//DTD SVG 1.1//EN" "http://www.w3.org/Graphics/SVG/1.1/DTD/svg11.dtd">
<svg version="1.1" id="Capa_1" xmlns="http://www.w3.org/2000/svg" xmlns:xlink="http://www.w3.org/1999/xlink" x="0px" y="0px"
	 width="400px" height="400px" viewBox="-50 -50 400 400" enable-background="new -50 -50 400 400" xml:space="preserve">
<g>
	<g>
		<path fill="#FFCC00" stroke="#006699" stroke-miterlimit="10" d="M194.05,157.84c-4.343-4.342-9.863-8.009-16.482-10.917
			c-6.156-2.697-12.857-4.047-19.308-5.352c-8.431-1.687-16.484-3.33-21.752-7.715c-0.758-0.632-1.475-1.348-2.106-2.108
			c-2.109-2.53-3.121-5.774-3.121-9.822c0-4.089,1.222-7.376,3.837-10.329c2.065-2.316,5.142-4.087,8.598-5.099
			c1.981-0.55,4.046-0.844,6.197-0.844c5.438,0,10.285,1.896,13.236,5.186c2.191,2.444,3.752,6.491,4.553,11.761
			c0.507,3.456,3.499,5.944,6.914,5.944c0.338,0,0.676-0.042,1.055-0.083l22.467-3.373c3.795-0.549,6.408-4.089,5.901-7.883l0,0
			c-1.938-13.7-7.797-24.702-17.41-32.712c-4.931-4.088-11.128-7.25-18.085-9.314V64.304c0-3.879-3.119-6.997-6.997-6.997h-17.746
			h-5.016c-3.877,0-6.997,3.119-6.997,6.997V75.01c-7.673,2.15-14.375,5.649-19.644,10.244
			c-11.085,9.696-16.734,22.51-16.734,38.024c0,4.384,0.506,8.558,1.475,12.519c0.969,3.962,2.402,7.673,4.298,11.171
			c3.921,7.166,9.569,12.855,16.818,16.903c10.244,5.735,20.193,8.263,31.152,10.707c7.252,1.644,15.218,4.005,19.348,9.021
			c1.897,2.359,2.909,5.816,2.909,10.243c0,5.521-1.518,9.99-4.679,13.573c-2.952,3.371-7.251,5.607-12.1,6.363
			c-1.138,0.169-2.36,0.255-3.539,0.255c-6.915,0-13.365-2.909-17.159-7.842c-1.771-2.275-4.215-7.123-5.649-17.282
			c-0.505-3.499-3.499-5.986-6.913-5.986c-0.379,0-0.801,0.043-1.221,0.085l-21.963,3.836c-3.542,0.633-6.028,3.795-5.775,7.377
			c0.757,10.832,3.667,20.277,8.557,27.99c4.976,7.84,11.088,13.658,18.127,17.281c4.003,2.067,8.262,3.712,12.772,4.936v9.021
			c0,3.875,3.118,6.997,6.998,6.997h22.764c3.878,0,6.998-3.119,6.998-6.997v-8.6c9.737-2.699,18.254-7.674,24.786-14.546
			c9.571-10.073,14.418-22.68,14.418-37.558c0-6.787-1.179-13.236-3.499-19.14C201.892,167.579,198.476,162.268,194.05,157.84z"/>
		<g>
			<g>
				<path fill="#FFCC00" stroke="#006699" stroke-miterlimit="10" d="M320.006,61.813l16.609-15.849
					c5.858-5.606,3.457-15.47-4.3-17.747L236.248,0.059c-7.8-2.275-15.135,4.722-13.196,12.604l23.606,97.249
					c1.898,7.883,11.635,10.749,17.537,5.143l13.784-13.153c5.059,13.07,8.346,26.81,9.823,41.101
					c2.739,26.22-0.97,52.862-10.792,77.142c-8.262,20.446-20.824,39.16-36.59,54.674c-3.963,3.921-4.258,10.243-0.59,14.458
					l22.131,25.505c3.962,4.554,10.919,4.849,15.304,0.676c21.834-21.036,39.202-46.667,50.585-74.7
					c13.194-32.542,18.168-68.288,14.498-103.445C339.522,110.628,332.021,85.336,320.006,61.813z"/>
			</g>
			<path fill="#FFCC00" stroke="#006699" stroke-miterlimit="10" d="M-20.008,256.187l-16.61,15.851
				c-5.859,5.604-3.457,15.47,4.299,17.747l96.069,28.158c7.799,2.275,15.135-4.722,13.195-12.604l-23.605-97.25
				c-1.898-7.885-11.636-10.75-17.537-5.144l-13.784,13.152c-5.059-13.067-8.345-26.811-9.822-41.099
				c-2.739-26.22,0.97-52.861,10.792-77.141c8.262-20.446,20.824-39.162,36.589-54.674c3.962-3.921,4.258-10.244,0.591-14.46
				L38.037,3.22C34.076-1.332,27.12-1.627,22.736,2.546C0.9,23.58-16.466,49.209-27.849,77.243
				c-13.195,32.542-18.168,68.29-14.501,103.445C-39.526,207.372-32.023,232.666-20.008,256.187z"/>
		</g>
	</g>
</g>
</svg>
