<?xml version="1.0" encoding="utf-8"?>
<!-- Generator: Adobe Illustrator 16.0.0, SVG Export Plug-In . SVG Version: 6.00 Build 0)  -->
<!DOCTYPE svg PUBLIC "-//W3C//DTD SVG 1.1//EN" "http://www.w3.org/Graphics/SVG/1.1/DTD/svg11.dtd">
<svg version="1.1" id="Capa_1" xmlns="http://www.w3.org/2000/svg" xmlns:xlink="http://www.w3.org/1999/xlink" x="0px" y="0px"
	 width="40px" height="40px" viewBox="236 236 40 40" enable-background="new 236 236 40 40" xml:space="preserve">
<path fill="#006699" d="M269.876,242.123c-3.707-3.707-8.635-5.748-13.877-5.748c-5.242,0-10.17,2.042-13.876,5.748
	c-3.707,3.706-5.748,8.634-5.748,13.876c0,5.242,2.041,10.17,5.748,13.877c3.706,3.706,8.634,5.747,13.876,5.747
	c5.242,0,10.17-2.041,13.877-5.747c3.706-3.707,5.747-8.635,5.747-13.877C275.623,250.757,273.582,245.829,269.876,242.123z
	 M260.371,256.359l4.891,4.892c0.395,0.395,0.395,1.035,0,1.43l-2.824,2.825c-0.192,0.191-0.445,0.296-0.716,0.296
	s-0.525-0.104-0.716-0.296l-4.891-4.892c-0.095-0.095-0.263-0.095-0.358,0l-4.892,4.892c-0.19,0.191-0.444,0.296-0.715,0.296
	s-0.525-0.104-0.715-0.296l-2.825-2.825c-0.191-0.19-0.295-0.444-0.295-0.716c0-0.271,0.104-0.524,0.295-0.714l4.891-4.892
	c0.097-0.097,0.097-0.261,0-0.358l-5.097-5.098c-0.191-0.19-0.296-0.445-0.296-0.715s0.105-0.525,0.296-0.715l2.825-2.825
	c0.19-0.19,0.444-0.295,0.716-0.295c0.271,0,0.525,0.105,0.715,0.295l5.098,5.098c0.095,0.094,0.263,0.094,0.357,0l5.098-5.098
	c0.19-0.19,0.445-0.295,0.716-0.295s0.525,0.105,0.716,0.295l2.824,2.825c0.19,0.19,0.297,0.445,0.297,0.715
	c0,0.271-0.106,0.525-0.297,0.716L260.37,256C260.273,256.098,260.273,256.262,260.371,256.359z"/>
</svg>
