<?xml version="1.0" encoding="utf-8"?>
<!-- Generator: Adobe Illustrator 16.0.0, SVG Export Plug-In . SVG Version: 6.00 Build 0)  -->
<!DOCTYPE svg PUBLIC "-//W3C//DTD SVG 1.1//EN" "http://www.w3.org/Graphics/SVG/1.1/DTD/svg11.dtd">
<svg version="1.1" id="Layer_1" xmlns="http://www.w3.org/2000/svg" xmlns:xlink="http://www.w3.org/1999/xlink" x="0px" y="0px"
	 width="492px" height="520px" viewBox="-174 -178 492 520" enable-background="new -174 -178 492 520" xml:space="preserve">
<g id="Layer_2">
	<circle fill="#353535" cx="72.129" cy="82" r="240.192"/>
	<g>
		<path fill="#FFFFFF" d="M-130.415,89.256c0.513,6.466,6.878,9.547,14.167,9.547c5.338,0,9.649-0.719,13.858-2.052l2.053,10.573
			c-5.133,2.052-11.395,3.071-18.17,3.071c-17.041,0-26.794-9.854-26.794-25.562c0-12.723,7.905-26.787,25.357-26.787
			c16.221,0,22.38,12.627,22.38,25.048c0,2.669-0.308,5.031-0.513,6.161H-130.415z M-112.039,78.579
			c0-3.795-1.643-10.163-8.829-10.163c-6.57,0-9.24,5.954-9.649,10.163H-112.039z"/>
		<path fill="#FFFFFF" d="M-75.288,59.177l4.929,8.314c1.437,2.566,2.771,5.133,4.105,7.492h0.206
			c1.335-2.67,2.566-5.236,3.901-7.699l4.415-8.111h16.937l-16.528,23.918l16.733,26.285h-17.658l-5.029-9.036
			c-1.437-2.459-2.67-5.026-3.901-7.592h-0.308c-1.231,2.659-2.566,5.133-3.798,7.592l-4.723,9.036h-17.143l17.041-25.561
			l-16.63-24.639H-75.288z"/>
		<path fill="#FFFFFF" d="M-31.655,76.012c0-6.566-0.204-12.212-0.409-16.832h13.551l0.718,6.98h0.206
			c3.693-5.342,9.44-8.114,16.729-8.114c10.984,0,20.841,9.547,20.841,25.561c0,18.276-11.601,26.896-22.791,26.896
			c-6.058,0-10.779-2.464-13.039-5.752h-0.205v24.943h-15.604L-31.655,76.012L-31.655,76.012z M-16.054,87.818
			c0,1.233,0.104,2.362,0.31,3.285c1.025,4.21,4.618,7.393,9.136,7.393c6.775,0,10.779-5.648,10.779-14.169
			c0-8.014-3.593-14.068-10.574-14.068c-4.414,0-8.316,3.285-9.341,7.908c-0.206,0.819-0.31,1.845-0.31,2.772V87.818z"/>
		<path fill="#FFFFFF" d="M31.99,75.705c0-7.392-0.206-12.218-0.411-16.528h13.449l0.513,9.24h0.411
			c2.566-7.29,8.725-10.37,13.551-10.37c1.437,0,2.155,0,3.285,0.206v14.68c-1.13-0.205-2.463-0.411-4.209-0.411
			c-5.748,0-9.649,3.08-10.677,7.909c-0.204,1.022-0.308,2.255-0.308,3.489v25.457H31.99V75.705z"/>
		<path fill="#FFFFFF" d="M84.443,89.256c0.515,6.466,6.888,9.547,14.176,9.547c5.34,0,9.645-0.719,13.858-2.052l2.055,10.573
			c-5.133,2.052-11.396,3.071-18.172,3.071c-17.037,0-26.794-9.854-26.794-25.562c0-12.73,7.913-26.793,25.356-26.793
			c16.215,0,22.376,12.626,22.376,25.048c0,2.668-0.313,5.03-0.507,6.16L84.443,89.256L84.443,89.256z M102.823,78.579
			c0-3.795-1.638-10.163-8.829-10.163c-6.569,0-9.236,5.954-9.641,10.163H102.823z"/>
		<path fill="#FFFFFF" d="M128.795,95.718c2.874,1.749,8.829,3.8,13.451,3.8c4.721,0,6.673-1.637,6.673-4.204
			c0-2.565-1.54-3.8-7.393-5.754c-10.365-3.495-14.368-9.137-14.269-15.095c0-9.342,8.007-16.424,20.429-16.424
			c5.851,0,11.087,1.335,14.172,2.874l-2.777,10.787c-2.259-1.233-6.569-2.875-10.884-2.875c-3.796,0-5.951,1.541-5.951,4.107
			c0,2.361,1.948,3.593,8.11,5.75c9.544,3.285,13.55,8.111,13.654,15.502c0,9.337-7.393,16.211-21.765,16.211
			c-6.57,0-12.422-1.437-16.218-3.492L128.795,95.718z"/>
		<path fill="#FFFFFF" d="M175.609,95.718c2.874,1.749,8.829,3.8,13.447,3.8c4.723,0,6.674-1.637,6.674-4.204
			c0-2.565-1.541-3.8-7.392-5.754c-10.366-3.495-14.37-9.137-14.27-15.095c0-9.342,8.007-16.424,20.431-16.424
			c5.849,0,11.084,1.335,14.173,2.874l-2.777,10.776c-2.259-1.232-6.573-2.875-10.884-2.875c-3.8,0-5.955,1.541-5.955,4.107
			c0,2.361,1.952,3.593,8.11,5.748c9.547,3.285,13.552,8.115,13.654,15.507c0,9.337-7.392,16.211-21.765,16.211
			c-6.57,0-12.421-1.437-16.217-3.491L175.609,95.718z"/>
		<path fill="#A6A09B" d="M212.154,118.616c4.107-0.312,7.289-1.233,9.24-3.285c2.259-2.362,3.081-6.366,3.081-16.328V59.177h15.7
			v43.522c0,10.984-2.46,17.658-7.078,21.969c-4.619,4.311-11.91,6.162-19.402,6.162L212.154,118.616z M240.59,45.214
			c0,4.312-3.182,7.803-8.422,7.803c-4.922,0-8.106-3.496-8.106-7.803c0-4.516,3.185-7.905,8.317-7.905
			C237.408,37.31,240.489,40.698,240.59,45.214z"/>
		<path fill="#A6A09B" d="M254.552,95.718c2.873,1.749,8.829,3.8,13.447,3.8c4.722,0,6.67-1.637,6.67-4.204
			c0-2.565-1.537-3.8-7.389-5.754c-10.366-3.495-14.369-9.137-14.272-15.095c0-9.342,8.01-16.424,20.432-16.424
			c5.851,0,11.087,1.335,14.169,2.874l-2.774,10.776c-2.259-1.232-6.569-2.875-10.88-2.875c-3.8,0-5.955,1.541-5.955,4.107
			c0,2.361,1.951,3.593,8.106,5.748c9.551,3.285,13.555,8.115,13.654,15.507c0,9.337-7.392,16.211-21.761,16.211
			c-6.57,0-12.426-1.437-16.218-3.491L254.552,95.718z"/>
	</g>
</g>
</svg>
