<?xml version="1.0" encoding="utf-8"?>
<!-- Generator: Adobe Illustrator 16.0.0, SVG Export Plug-In . SVG Version: 6.00 Build 0)  -->
<!DOCTYPE svg PUBLIC "-//W3C//DTD SVG 1.1//EN" "http://www.w3.org/Graphics/SVG/1.1/DTD/svg11.dtd">
<svg version="1.1" id="Layer_1" xmlns="http://www.w3.org/2000/svg" xmlns:xlink="http://www.w3.org/1999/xlink" x="0px" y="0px"
	 width="492px" height="520px" viewBox="-174 -178 492 520" enable-background="new -174 -178 492 520" xml:space="preserve">
<g id="Layer_2">
	<path fill="#82C865" d="M70.827,339.259C-178.027,209.311-171.091-34.182-140.812-99.784c0,0,36.553-79.167,213.495-73.491
		c0,0,174.419,3.152,211.638,73.491c30.279,65.606,37.216,309.095-211.638,439.046"/>
	<path fill="#412F1F" d="M70.978,297.652C-137.495,188.794-131.685-15.189-106.32-70.151c0,0,30.625-66.32,178.851-61.565
		c0,0,146.118,2.646,177.295,61.565c25.368,54.962,31.181,258.945-177.295,367.804"/>
	<path fill="#82C865" d="M71.752-113.666c0,0,18.907,35.958,34.996,57.719c16.085,21.763,101.242,191.134-34.064,272.511
		c0,0-120.169-67.186-77.59-215.739C27.263-73.921,59.47-74.867,71.752-113.666z"/>
	<path fill="#759B3A" d="M72.684-76.76v269.67c0,0,69.076-23.65,63.396-141.457C122.833-43.642,72.684-76.76,72.684-76.76z"/>
</g>
</svg>
