<?xml version="1.0" encoding="utf-8"?>
<!-- Generator: Adobe Illustrator 16.0.0, SVG Export Plug-In . SVG Version: 6.00 Build 0)  -->
<!DOCTYPE svg PUBLIC "-//W3C//DTD SVG 1.1//EN" "http://www.w3.org/Graphics/SVG/1.1/DTD/svg11.dtd">
<svg version="1.1" id="Layer_2" xmlns="http://www.w3.org/2000/svg" xmlns:xlink="http://www.w3.org/1999/xlink" x="0px" y="0px"
	 width="492px" height="520px" viewBox="-174 -178 492 520" enable-background="new -174 -178 492 520" xml:space="preserve">
<path fill="#8CC84B" d="M-25.058-9.563H8.291v234.587c0,0-14.951,64.394-77.048,45.996c-62.096-18.398-97.743-52.899-97.743-64.397
	V-22.213c0,0,4.602-27.598,23-36.799L32.439-165.005c0,0,39.097-22.051,79.346,0L295.776-53.261c0,0,16.101,2.301,13.8,37.948
	l0.222,206.988c0,0,6.678,19.547-17.472,35.646l-157.545,93.846c0,0-72.419,46.879-126.494,0l-21.848-14.5l31.048-18.397
	c0,0,25.218,28.747,54.582,25.297c29.365-3.449,188.056-98.892,188.056-98.892s26.45-10.353,24.149-49.449
	c-2.302-39.097,0-171.341,0-171.341s-3.453-18.398-25.301-29.899L91.083-134.904c0,0-8.049-17.249-34.498-1.149L-113.604-38.31
	c0,0-19.55,4.599-18.398,45.996v194.338c0,0,104.646,73.595,105.795,18.397L-25.058-9.563z"/>
<path fill="#8CC84B" d="M186.528,44.485h37.948c0,0-8.052-63.245-91.996-63.245c-83.944,0-94.293,49.446-89.695,85.097
	c3.45,16.1,59.795,32.203,118.442,37.947c62.097,13.8,37.948,65.55-20.698,63.245c-79.346,0-77.045-41.397-77.045-41.397
	l-29.899,1.149c0,0-14.948,63.252,104.643,67.847c121.892-9.2,109.241-102.992,45.996-117.044S38.187,68.634,81.882,20.337
	C129.03-3.812,176.179,19.188,186.528,44.485z"/>
</svg>
